<?xml version="1.0" encoding="utf-8" standalone="no"?>
<!DOCTYPE svg PUBLIC "-//W3C//DTD SVG 1.1//EN"
  "http://www.w3.org/Graphics/SVG/1.1/DTD/svg11.dtd">
<svg xmlns:xlink="http://www.w3.org/1999/xlink" width="611.58696pt" height="290.16pt" viewBox="0 0 611.58696 290.16" xmlns="http://www.w3.org/2000/svg" version="1.1">
 <metadata>
  <rdf:RDF xmlns:dc="http://purl.org/dc/elements/1.1/" xmlns:cc="http://creativecommons.org/ns#" xmlns:rdf="http://www.w3.org/1999/02/22-rdf-syntax-ns#">
   <cc:Work>
    <dc:type rdf:resource="http://purl.org/dc/dcmitype/StillImage"/>
    <dc:date>2026-07-11T11:55:02.348850</dc:date>
    <dc:format>image/svg+xml</dc:format>
    <dc:creator>
     <cc:Agent>
      <dc:title>Matplotlib v3.9.2, https://matplotlib.org/</dc:title>
     </cc:Agent>
    </dc:creator>
   </cc:Work>
  </rdf:RDF>
 </metadata>
 <defs>
  <style type="text/css">*{stroke-linejoin: round; stroke-linecap: butt}</style>
 </defs>
 <g id="figure_1">
  <g id="patch_1">
   <path d="M 0 290.16 
L 611.58696 290.16 
L 611.58696 0 
L 0 0 
z
" style="fill: #ffffff"/>
  </g>
  <g id="axes_1">
   <g id="patch_2">
    <path d="M 10.783122 114.506609 
L 117.082401 114.506609 
Q 119.471148 114.506609 119.471148 112.108696 
L 119.471148 16.192174 
Q 119.471148 13.794261 117.082401 13.794261 
L 10.783122 13.794261 
Q 8.394374 13.794261 8.394374 16.192174 
L 8.394374 112.108696 
Q 8.394374 114.506609 10.783122 114.506609 
z
" clip-path="url(#pecc7f15502)" style="fill: #fbfbfc; stroke: #4a4f5a; stroke-width: 1.35; stroke-linejoin: miter"/>
   </g>
   <g id="patch_3">
    <path d="M 121.768627 64.150435 
Q 124.247402 64.150435 125.049126 64.150435 
" clip-path="url(#pecc7f15502)" style="fill: none; stroke: #4a4f5a; stroke-width: 1.5; stroke-linecap: round"/>
    <path d="M 119.049126 61.150435 
L 125.049126 64.150435 
L 119.049126 67.150435 
z
" clip-path="url(#pecc7f15502)" style="fill: #4a4f5a; stroke: #4a4f5a; stroke-width: 1.5; stroke-linecap: round"/>
   </g>
   <g id="patch_4">
    <path d="M 131.414888 114.506609 
L 237.714167 114.506609 
Q 240.102914 114.506609 240.102914 112.108696 
L 240.102914 16.192174 
Q 240.102914 13.794261 237.714167 13.794261 
L 131.414888 13.794261 
Q 129.02614 13.794261 129.02614 16.192174 
L 129.02614 112.108696 
Q 129.02614 114.506609 131.414888 114.506609 
z
" clip-path="url(#pecc7f15502)" style="fill: #fbfbfc; stroke: #4a4f5a; stroke-width: 1.35; stroke-linejoin: miter"/>
   </g>
   <g id="patch_5">
    <path d="M 242.400393 64.150435 
Q 244.879168 64.150435 245.680892 64.150435 
" clip-path="url(#pecc7f15502)" style="fill: none; stroke: #4a4f5a; stroke-width: 1.5; stroke-linecap: round"/>
    <path d="M 239.680892 61.150435 
L 245.680892 64.150435 
L 239.680892 67.150435 
z
" clip-path="url(#pecc7f15502)" style="fill: #4a4f5a; stroke: #4a4f5a; stroke-width: 1.5; stroke-linecap: round"/>
   </g>
   <g id="patch_6">
    <path d="M 252.046654 114.506609 
L 358.345932 114.506609 
Q 360.73468 114.506609 360.73468 112.108696 
L 360.73468 16.192174 
Q 360.73468 13.794261 358.345932 13.794261 
L 252.046654 13.794261 
Q 249.657906 13.794261 249.657906 16.192174 
L 249.657906 112.108696 
Q 249.657906 114.506609 252.046654 114.506609 
z
" clip-path="url(#pecc7f15502)" style="fill: #fbfbfc; stroke: #6a4fa3; stroke-width: 1.35; stroke-linejoin: miter"/>
   </g>
   <g id="patch_7">
    <path d="M 363.032159 64.150435 
Q 365.510934 64.150435 366.312658 64.150435 
" clip-path="url(#pecc7f15502)" style="fill: none; stroke: #4a4f5a; stroke-width: 1.5; stroke-linecap: round"/>
    <path d="M 360.312658 61.150435 
L 366.312658 64.150435 
L 360.312658 67.150435 
z
" clip-path="url(#pecc7f15502)" style="fill: #4a4f5a; stroke: #4a4f5a; stroke-width: 1.5; stroke-linecap: round"/>
   </g>
   <g id="patch_8">
    <path d="M 372.67842 114.506609 
L 478.977698 114.506609 
Q 481.366446 114.506609 481.366446 112.108696 
L 481.366446 16.192174 
Q 481.366446 13.794261 478.977698 13.794261 
L 372.67842 13.794261 
Q 370.289672 13.794261 370.289672 16.192174 
L 370.289672 112.108696 
Q 370.289672 114.506609 372.67842 114.506609 
z
" clip-path="url(#pecc7f15502)" style="fill: #fbfbfc; stroke: #6a4fa3; stroke-width: 1.35; stroke-linejoin: miter"/>
   </g>
   <g id="patch_9">
    <path d="M 483.663925 64.150435 
Q 486.1427 64.150435 486.944424 64.150435 
" clip-path="url(#pecc7f15502)" style="fill: none; stroke: #4a4f5a; stroke-width: 1.5; stroke-linecap: round"/>
    <path d="M 480.944424 61.150435 
L 486.944424 64.150435 
L 480.944424 67.150435 
z
" clip-path="url(#pecc7f15502)" style="fill: #4a4f5a; stroke: #4a4f5a; stroke-width: 1.5; stroke-linecap: round"/>
   </g>
   <g id="patch_10">
    <path d="M 493.310185 114.506609 
L 599.609464 114.506609 
Q 601.998212 114.506609 601.998212 112.108696 
L 601.998212 16.192174 
Q 601.998212 13.794261 599.609464 13.794261 
L 493.310185 13.794261 
Q 490.921438 13.794261 490.921438 16.192174 
L 490.921438 112.108696 
Q 490.921438 114.506609 493.310185 114.506609 
z
" clip-path="url(#pecc7f15502)" style="fill: #fbfbfc; stroke-dasharray: 4.995,2.16; stroke-dashoffset: 0; stroke: #6a4fa3; stroke-width: 1.35; stroke-linejoin: miter"/>
   </g>
   <g id="patch_11">
    <path d="M 132.609262 248.190261 
L 478.977698 248.190261 
Q 481.366446 248.190261 481.366446 245.792348 
L 481.366446 134.88887 
Q 481.366446 132.490957 478.977698 132.490957 
L 132.609262 132.490957 
Q 130.220514 132.490957 130.220514 134.88887 
L 130.220514 245.792348 
Q 130.220514 248.190261 132.609262 248.190261 
z
" clip-path="url(#pecc7f15502)" style="fill: #ffffff; stroke: #6a4fa3; stroke-width: 1.15; stroke-linejoin: miter"/>
   </g>
   <g id="line2d_1">
    <path d="M 305.196293 115.106087 
L 305.196293 131.891478 
" clip-path="url(#pecc7f15502)" style="fill: none; stroke-dasharray: 1.25,2.0625; stroke-dashoffset: 0; stroke: #6a4fa3; stroke-width: 1.25"/>
   </g>
   <g id="text_1">
    <!-- Synthetic ANDS -->
    <g style="fill: #2b2f38" transform="translate(19.558542 33.695841) scale(0.1 -0.1)">
     <defs>
      <path id="DejaVuSans-Bold-53" d="M 3834 4519 
L 3834 3531 
Q 3450 3703 3084 3790 
Q 2719 3878 2394 3878 
Q 1963 3878 1756 3759 
Q 1550 3641 1550 3391 
Q 1550 3203 1689 3098 
Q 1828 2994 2194 2919 
L 2706 2816 
Q 3484 2659 3812 2340 
Q 4141 2022 4141 1434 
Q 4141 663 3683 286 
Q 3225 -91 2284 -91 
Q 1841 -91 1394 -6 
Q 947 78 500 244 
L 500 1259 
Q 947 1022 1364 901 
Q 1781 781 2169 781 
Q 2563 781 2772 912 
Q 2981 1044 2981 1288 
Q 2981 1506 2839 1625 
Q 2697 1744 2272 1838 
L 1806 1941 
Q 1106 2091 782 2419 
Q 459 2747 459 3303 
Q 459 4000 909 4375 
Q 1359 4750 2203 4750 
Q 2588 4750 2994 4692 
Q 3400 4634 3834 4519 
z
" transform="scale(0.015625)"/>
      <path id="DejaVuSans-Bold-79" d="M 78 3500 
L 1197 3500 
L 2138 1125 
L 2938 3500 
L 4056 3500 
L 2584 -331 
Q 2363 -916 2067 -1148 
Q 1772 -1381 1288 -1381 
L 641 -1381 
L 641 -647 
L 991 -647 
Q 1275 -647 1404 -556 
Q 1534 -466 1606 -231 
L 1638 -134 
L 78 3500 
z
" transform="scale(0.015625)"/>
      <path id="DejaVuSans-Bold-6e" d="M 4056 2131 
L 4056 0 
L 2931 0 
L 2931 347 
L 2931 1631 
Q 2931 2084 2911 2256 
Q 2891 2428 2841 2509 
Q 2775 2619 2662 2680 
Q 2550 2741 2406 2741 
Q 2056 2741 1856 2470 
Q 1656 2200 1656 1722 
L 1656 0 
L 538 0 
L 538 3500 
L 1656 3500 
L 1656 2988 
Q 1909 3294 2193 3439 
Q 2478 3584 2822 3584 
Q 3428 3584 3742 3212 
Q 4056 2841 4056 2131 
z
" transform="scale(0.015625)"/>
      <path id="DejaVuSans-Bold-74" d="M 1759 4494 
L 1759 3500 
L 2913 3500 
L 2913 2700 
L 1759 2700 
L 1759 1216 
Q 1759 972 1856 886 
Q 1953 800 2241 800 
L 2816 800 
L 2816 0 
L 1856 0 
Q 1194 0 917 276 
Q 641 553 641 1216 
L 641 2700 
L 84 2700 
L 84 3500 
L 641 3500 
L 641 4494 
L 1759 4494 
z
" transform="scale(0.015625)"/>
      <path id="DejaVuSans-Bold-68" d="M 4056 2131 
L 4056 0 
L 2931 0 
L 2931 347 
L 2931 1625 
Q 2931 2084 2911 2256 
Q 2891 2428 2841 2509 
Q 2775 2619 2662 2680 
Q 2550 2741 2406 2741 
Q 2056 2741 1856 2470 
Q 1656 2200 1656 1722 
L 1656 0 
L 538 0 
L 538 4863 
L 1656 4863 
L 1656 2988 
Q 1909 3294 2193 3439 
Q 2478 3584 2822 3584 
Q 3428 3584 3742 3212 
Q 4056 2841 4056 2131 
z
" transform="scale(0.015625)"/>
      <path id="DejaVuSans-Bold-65" d="M 4031 1759 
L 4031 1441 
L 1416 1441 
Q 1456 1047 1700 850 
Q 1944 653 2381 653 
Q 2734 653 3104 758 
Q 3475 863 3866 1075 
L 3866 213 
Q 3469 63 3072 -14 
Q 2675 -91 2278 -91 
Q 1328 -91 801 392 
Q 275 875 275 1747 
Q 275 2603 792 3093 
Q 1309 3584 2216 3584 
Q 3041 3584 3536 3087 
Q 4031 2591 4031 1759 
z
M 2881 2131 
Q 2881 2450 2695 2645 
Q 2509 2841 2209 2841 
Q 1884 2841 1681 2658 
Q 1478 2475 1428 2131 
L 2881 2131 
z
" transform="scale(0.015625)"/>
      <path id="DejaVuSans-Bold-69" d="M 538 3500 
L 1656 3500 
L 1656 0 
L 538 0 
L 538 3500 
z
M 538 4863 
L 1656 4863 
L 1656 3950 
L 538 3950 
L 538 4863 
z
" transform="scale(0.015625)"/>
      <path id="DejaVuSans-Bold-63" d="M 3366 3391 
L 3366 2478 
Q 3138 2634 2908 2709 
Q 2678 2784 2431 2784 
Q 1963 2784 1702 2511 
Q 1441 2238 1441 1747 
Q 1441 1256 1702 982 
Q 1963 709 2431 709 
Q 2694 709 2930 787 
Q 3166 866 3366 1019 
L 3366 103 
Q 3103 6 2833 -42 
Q 2563 -91 2291 -91 
Q 1344 -91 809 395 
Q 275 881 275 1747 
Q 275 2613 809 3098 
Q 1344 3584 2291 3584 
Q 2566 3584 2833 3536 
Q 3100 3488 3366 3391 
z
" transform="scale(0.015625)"/>
      <path id="DejaVuSans-Bold-20" transform="scale(0.015625)"/>
      <path id="DejaVuSans-Bold-41" d="M 3419 850 
L 1538 850 
L 1241 0 
L 31 0 
L 1759 4666 
L 3194 4666 
L 4922 0 
L 3713 0 
L 3419 850 
z
M 1838 1716 
L 3116 1716 
L 2478 3572 
L 1838 1716 
z
" transform="scale(0.015625)"/>
      <path id="DejaVuSans-Bold-4e" d="M 588 4666 
L 1931 4666 
L 3628 1466 
L 3628 4666 
L 4769 4666 
L 4769 0 
L 3425 0 
L 1728 3200 
L 1728 0 
L 588 0 
L 588 4666 
z
" transform="scale(0.015625)"/>
      <path id="DejaVuSans-Bold-44" d="M 1791 3756 
L 1791 909 
L 2222 909 
Q 2959 909 3348 1275 
Q 3738 1641 3738 2338 
Q 3738 3031 3350 3393 
Q 2963 3756 2222 3756 
L 1791 3756 
z
M 588 4666 
L 1856 4666 
Q 2919 4666 3439 4514 
Q 3959 4363 4331 4000 
Q 4659 3684 4818 3271 
Q 4978 2859 4978 2338 
Q 4978 1809 4818 1395 
Q 4659 981 4331 666 
Q 3956 303 3431 151 
Q 2906 0 1856 0 
L 588 0 
L 588 4666 
z
" transform="scale(0.015625)"/>
     </defs>
     <use xlink:href="#DejaVuSans-Bold-53"/>
     <use xlink:href="#DejaVuSans-Bold-79" x="72.021484"/>
     <use xlink:href="#DejaVuSans-Bold-6e" x="137.207031"/>
     <use xlink:href="#DejaVuSans-Bold-74" x="208.398438"/>
     <use xlink:href="#DejaVuSans-Bold-68" x="256.201172"/>
     <use xlink:href="#DejaVuSans-Bold-65" x="327.392578"/>
     <use xlink:href="#DejaVuSans-Bold-74" x="395.214844"/>
     <use xlink:href="#DejaVuSans-Bold-69" x="443.017578"/>
     <use xlink:href="#DejaVuSans-Bold-63" x="477.294922"/>
     <use xlink:href="#DejaVuSans-Bold-20" x="536.572266"/>
     <use xlink:href="#DejaVuSans-Bold-41" x="571.386719"/>
     <use xlink:href="#DejaVuSans-Bold-4e" x="648.779297"/>
     <use xlink:href="#DejaVuSans-Bold-44" x="732.470703"/>
     <use xlink:href="#DejaVuSans-Bold-53" x="815.478516"/>
    </g>
    <!-- discourse corpus -->
    <g style="fill: #2b2f38" transform="translate(16.153074 44.971779) scale(0.1 -0.1)">
     <defs>
      <path id="DejaVuSans-Bold-64" d="M 2919 2988 
L 2919 4863 
L 4044 4863 
L 4044 0 
L 2919 0 
L 2919 506 
Q 2688 197 2409 53 
Q 2131 -91 1766 -91 
Q 1119 -91 703 423 
Q 288 938 288 1747 
Q 288 2556 703 3070 
Q 1119 3584 1766 3584 
Q 2128 3584 2408 3439 
Q 2688 3294 2919 2988 
z
M 2181 722 
Q 2541 722 2730 984 
Q 2919 1247 2919 1747 
Q 2919 2247 2730 2509 
Q 2541 2772 2181 2772 
Q 1825 2772 1636 2509 
Q 1447 2247 1447 1747 
Q 1447 1247 1636 984 
Q 1825 722 2181 722 
z
" transform="scale(0.015625)"/>
      <path id="DejaVuSans-Bold-73" d="M 3272 3391 
L 3272 2541 
Q 2913 2691 2578 2766 
Q 2244 2841 1947 2841 
Q 1628 2841 1473 2761 
Q 1319 2681 1319 2516 
Q 1319 2381 1436 2309 
Q 1553 2238 1856 2203 
L 2053 2175 
Q 2913 2066 3209 1816 
Q 3506 1566 3506 1031 
Q 3506 472 3093 190 
Q 2681 -91 1863 -91 
Q 1516 -91 1145 -36 
Q 775 19 384 128 
L 384 978 
Q 719 816 1070 734 
Q 1422 653 1784 653 
Q 2113 653 2278 743 
Q 2444 834 2444 1013 
Q 2444 1163 2330 1236 
Q 2216 1309 1875 1350 
L 1678 1375 
Q 931 1469 631 1722 
Q 331 1975 331 2491 
Q 331 3047 712 3315 
Q 1094 3584 1881 3584 
Q 2191 3584 2531 3537 
Q 2872 3491 3272 3391 
z
" transform="scale(0.015625)"/>
      <path id="DejaVuSans-Bold-6f" d="M 2203 2784 
Q 1831 2784 1636 2517 
Q 1441 2250 1441 1747 
Q 1441 1244 1636 976 
Q 1831 709 2203 709 
Q 2569 709 2762 976 
Q 2956 1244 2956 1747 
Q 2956 2250 2762 2517 
Q 2569 2784 2203 2784 
z
M 2203 3584 
Q 3106 3584 3614 3096 
Q 4122 2609 4122 1747 
Q 4122 884 3614 396 
Q 3106 -91 2203 -91 
Q 1297 -91 786 396 
Q 275 884 275 1747 
Q 275 2609 786 3096 
Q 1297 3584 2203 3584 
z
" transform="scale(0.015625)"/>
      <path id="DejaVuSans-Bold-75" d="M 500 1363 
L 500 3500 
L 1625 3500 
L 1625 3150 
Q 1625 2866 1622 2436 
Q 1619 2006 1619 1863 
Q 1619 1441 1641 1255 
Q 1663 1069 1716 984 
Q 1784 875 1895 815 
Q 2006 756 2150 756 
Q 2500 756 2700 1025 
Q 2900 1294 2900 1772 
L 2900 3500 
L 4019 3500 
L 4019 0 
L 2900 0 
L 2900 506 
Q 2647 200 2364 54 
Q 2081 -91 1741 -91 
Q 1134 -91 817 281 
Q 500 653 500 1363 
z
" transform="scale(0.015625)"/>
      <path id="DejaVuSans-Bold-72" d="M 3138 2547 
Q 2991 2616 2845 2648 
Q 2700 2681 2553 2681 
Q 2122 2681 1889 2404 
Q 1656 2128 1656 1613 
L 1656 0 
L 538 0 
L 538 3500 
L 1656 3500 
L 1656 2925 
Q 1872 3269 2151 3426 
Q 2431 3584 2822 3584 
Q 2878 3584 2943 3579 
Q 3009 3575 3134 3559 
L 3138 2547 
z
" transform="scale(0.015625)"/>
      <path id="DejaVuSans-Bold-70" d="M 1656 506 
L 1656 -1331 
L 538 -1331 
L 538 3500 
L 1656 3500 
L 1656 2988 
Q 1888 3294 2169 3439 
Q 2450 3584 2816 3584 
Q 3463 3584 3878 3070 
Q 4294 2556 4294 1747 
Q 4294 938 3878 423 
Q 3463 -91 2816 -91 
Q 2450 -91 2169 54 
Q 1888 200 1656 506 
z
M 2400 2772 
Q 2041 2772 1848 2508 
Q 1656 2244 1656 1747 
Q 1656 1250 1848 986 
Q 2041 722 2400 722 
Q 2759 722 2948 984 
Q 3138 1247 3138 1747 
Q 3138 2247 2948 2509 
Q 2759 2772 2400 2772 
z
" transform="scale(0.015625)"/>
     </defs>
     <use xlink:href="#DejaVuSans-Bold-64"/>
     <use xlink:href="#DejaVuSans-Bold-69" x="71.582031"/>
     <use xlink:href="#DejaVuSans-Bold-73" x="105.859375"/>
     <use xlink:href="#DejaVuSans-Bold-63" x="165.380859"/>
     <use xlink:href="#DejaVuSans-Bold-6f" x="224.658203"/>
     <use xlink:href="#DejaVuSans-Bold-75" x="293.359375"/>
     <use xlink:href="#DejaVuSans-Bold-72" x="364.550781"/>
     <use xlink:href="#DejaVuSans-Bold-73" x="413.867188"/>
     <use xlink:href="#DejaVuSans-Bold-65" x="473.388672"/>
     <use xlink:href="#DejaVuSans-Bold-20" x="541.210938"/>
     <use xlink:href="#DejaVuSans-Bold-63" x="576.025391"/>
     <use xlink:href="#DejaVuSans-Bold-6f" x="635.302734"/>
     <use xlink:href="#DejaVuSans-Bold-72" x="704.003906"/>
     <use xlink:href="#DejaVuSans-Bold-70" x="753.320312"/>
     <use xlink:href="#DejaVuSans-Bold-75" x="824.902344"/>
     <use xlink:href="#DejaVuSans-Bold-73" x="896.09375"/>
    </g>
   </g>
   <g id="text_2">
    <!-- 524 posts · 78 accounts -->
    <g style="fill: #6b7280" transform="translate(16.707425 91.881118) scale(0.079 -0.079)">
     <defs>
      <path id="DejaVuSans-Oblique-35" d="M 3719 4666 
L 3622 4141 
L 1691 4141 
L 1466 2988 
Q 1609 3034 1757 3056 
Q 1906 3078 2059 3078 
Q 2706 3078 3081 2731 
Q 3456 2384 3456 1791 
Q 3456 1375 3264 994 
Q 3072 613 2719 325 
Q 2469 125 2108 17 
Q 1747 -91 1319 -91 
Q 1038 -91 744 -41 
Q 450 9 128 109 
L 244 697 
Q 531 556 820 486 
Q 1109 416 1403 416 
Q 2013 416 2411 781 
Q 2809 1147 2809 1697 
Q 2809 2103 2548 2328 
Q 2288 2553 1819 2553 
Q 1572 2553 1305 2495 
Q 1038 2438 756 2322 
L 1209 4666 
L 3719 4666 
z
" transform="scale(0.015625)"/>
      <path id="DejaVuSans-Oblique-32" d="M 2950 2253 
L 934 525 
L 3163 525 
L 3053 0 
L 25 0 
L 128 531 
L 2234 2338 
Q 2656 2703 2832 2979 
Q 3009 3256 3009 3547 
Q 3009 3850 2796 4040 
Q 2584 4231 2241 4231 
Q 1944 4231 1581 4125 
Q 1219 4019 806 3816 
L 922 4441 
Q 1309 4594 1662 4672 
Q 2016 4750 2316 4750 
Q 2928 4750 3301 4425 
Q 3675 4100 3675 3572 
Q 3675 3216 3497 2892 
Q 3319 2569 2950 2253 
z
" transform="scale(0.015625)"/>
      <path id="DejaVuSans-Oblique-34" d="M 2753 4666 
L 3547 4666 
L 2950 1625 
L 3616 1625 
L 3513 1100 
L 2847 1100 
L 2638 0 
L 2009 0 
L 2222 1100 
L 116 1100 
L 238 1709 
L 2753 4666 
z
M 2809 4116 
L 728 1625 
L 2322 1625 
L 2809 4116 
z
" transform="scale(0.015625)"/>
      <path id="DejaVuSans-Oblique-20" transform="scale(0.015625)"/>
      <path id="DejaVuSans-Oblique-70" d="M 3175 2156 
Q 3175 2616 2975 2859 
Q 2775 3103 2400 3103 
Q 2144 3103 1911 2972 
Q 1678 2841 1497 2591 
Q 1319 2344 1212 1994 
Q 1106 1644 1106 1300 
Q 1106 863 1306 627 
Q 1506 391 1875 391 
Q 2147 391 2380 519 
Q 2613 647 2778 891 
Q 2956 1147 3065 1494 
Q 3175 1841 3175 2156 
z
M 1394 2969 
Q 1625 3272 1939 3428 
Q 2253 3584 2638 3584 
Q 3175 3584 3472 3232 
Q 3769 2881 3769 2247 
Q 3769 1728 3584 1258 
Q 3400 788 3053 416 
Q 2822 169 2531 39 
Q 2241 -91 1919 -91 
Q 1547 -91 1294 64 
Q 1041 219 916 525 
L 556 -1331 
L -19 -1331 
L 922 3500 
L 1497 3500 
L 1394 2969 
z
" transform="scale(0.015625)"/>
      <path id="DejaVuSans-Oblique-6f" d="M 1625 -91 
Q 1009 -91 651 289 
Q 294 669 294 1325 
Q 294 1706 417 2101 
Q 541 2497 738 2766 
Q 1047 3184 1428 3384 
Q 1809 3584 2291 3584 
Q 2888 3584 3255 3212 
Q 3622 2841 3622 2241 
Q 3622 1825 3500 1412 
Q 3378 1000 3181 728 
Q 2875 309 2494 109 
Q 2113 -91 1625 -91 
z
M 891 1344 
Q 891 869 1089 633 
Q 1288 397 1691 397 
Q 2269 397 2648 901 
Q 3028 1406 3028 2181 
Q 3028 2634 2825 2865 
Q 2622 3097 2228 3097 
Q 1903 3097 1650 2945 
Q 1397 2794 1197 2484 
Q 1050 2253 970 1956 
Q 891 1659 891 1344 
z
" transform="scale(0.015625)"/>
      <path id="DejaVuSans-Oblique-73" d="M 3200 3397 
L 3091 2853 
Q 2863 2978 2609 3040 
Q 2356 3103 2088 3103 
Q 1634 3103 1373 2948 
Q 1113 2794 1113 2528 
Q 1113 2219 1719 2053 
Q 1766 2041 1788 2034 
L 1972 1978 
Q 2547 1819 2739 1644 
Q 2931 1469 2931 1166 
Q 2931 609 2489 259 
Q 2047 -91 1331 -91 
Q 1053 -91 747 -37 
Q 441 16 72 128 
L 184 722 
Q 500 559 806 475 
Q 1113 391 1394 391 
Q 1816 391 2080 572 
Q 2344 753 2344 1031 
Q 2344 1331 1650 1516 
L 1591 1531 
L 1394 1581 
Q 956 1697 753 1886 
Q 550 2075 550 2369 
Q 550 2928 970 3256 
Q 1391 3584 2113 3584 
Q 2397 3584 2667 3537 
Q 2938 3491 3200 3397 
z
" transform="scale(0.015625)"/>
      <path id="DejaVuSans-Oblique-74" d="M 2706 3500 
L 2619 3053 
L 1472 3053 
L 1100 1153 
Q 1081 1047 1072 975 
Q 1063 903 1063 863 
Q 1063 663 1183 572 
Q 1303 481 1569 481 
L 2150 481 
L 2053 0 
L 1503 0 
Q 991 0 739 200 
Q 488 400 488 806 
Q 488 878 497 964 
Q 506 1050 525 1153 
L 897 3053 
L 409 3053 
L 500 3500 
L 978 3500 
L 1172 4494 
L 1747 4494 
L 1556 3500 
L 2706 3500 
z
" transform="scale(0.015625)"/>
      <path id="DejaVuSans-Oblique-b7" d="M 884 2619 
L 1544 2619 
L 1388 1825 
L 728 1825 
L 884 2619 
z
" transform="scale(0.015625)"/>
      <path id="DejaVuSans-Oblique-37" d="M 819 4666 
L 4013 4666 
L 3956 4397 
L 1288 0 
L 594 0 
L 3116 4134 
L 716 4134 
L 819 4666 
z
" transform="scale(0.015625)"/>
      <path id="DejaVuSans-Oblique-38" d="M 2847 1416 
Q 2847 1769 2600 1992 
Q 2353 2216 1953 2216 
Q 1466 2216 1148 1923 
Q 831 1631 831 1184 
Q 831 828 1073 618 
Q 1316 409 1728 409 
Q 2219 409 2533 693 
Q 2847 978 2847 1416 
z
M 3169 3591 
Q 3169 3888 2950 4069 
Q 2731 4250 2369 4250 
Q 1941 4250 1664 4009 
Q 1388 3769 1388 3406 
Q 1388 3094 1605 2903 
Q 1822 2713 2181 2713 
Q 2613 2713 2891 2961 
Q 3169 3209 3169 3591 
z
M 2741 2456 
Q 3094 2322 3281 2050 
Q 3469 1778 3469 1394 
Q 3469 747 2969 328 
Q 2469 -91 1678 -91 
Q 1006 -91 609 239 
Q 213 569 213 1119 
Q 213 1619 553 2008 
Q 894 2397 1441 2503 
Q 1113 2616 941 2852 
Q 769 3088 769 3425 
Q 769 3991 1239 4370 
Q 1709 4750 2431 4750 
Q 3034 4750 3414 4442 
Q 3794 4134 3794 3659 
Q 3794 3247 3511 2923 
Q 3228 2600 2741 2456 
z
" transform="scale(0.015625)"/>
      <path id="DejaVuSans-Oblique-61" d="M 3438 1997 
L 3047 0 
L 2472 0 
L 2578 531 
Q 2325 219 2001 64 
Q 1678 -91 1281 -91 
Q 834 -91 548 182 
Q 263 456 263 884 
Q 263 1497 752 1853 
Q 1241 2209 2100 2209 
L 2900 2209 
L 2931 2363 
Q 2938 2388 2941 2417 
Q 2944 2447 2944 2509 
Q 2944 2788 2717 2942 
Q 2491 3097 2081 3097 
Q 1800 3097 1504 3025 
Q 1209 2953 897 2809 
L 997 3341 
Q 1322 3463 1633 3523 
Q 1944 3584 2234 3584 
Q 2853 3584 3176 3315 
Q 3500 3047 3500 2534 
Q 3500 2431 3484 2292 
Q 3469 2153 3438 1997 
z
M 2816 1759 
L 2241 1759 
Q 1534 1759 1195 1570 
Q 856 1381 856 984 
Q 856 709 1029 553 
Q 1203 397 1509 397 
Q 1978 397 2328 733 
Q 2678 1069 2791 1631 
L 2816 1759 
z
" transform="scale(0.015625)"/>
      <path id="DejaVuSans-Oblique-63" d="M 3431 3366 
L 3316 2797 
Q 3109 2947 2876 3022 
Q 2644 3097 2394 3097 
Q 2119 3097 1870 3000 
Q 1622 2903 1453 2725 
Q 1184 2453 1037 2087 
Q 891 1722 891 1331 
Q 891 859 1127 628 
Q 1363 397 1844 397 
Q 2081 397 2348 469 
Q 2616 541 2906 684 
L 2797 116 
Q 2547 13 2283 -39 
Q 2019 -91 1741 -91 
Q 1044 -91 669 257 
Q 294 606 294 1253 
Q 294 1797 489 2255 
Q 684 2713 1069 3078 
Q 1331 3328 1684 3456 
Q 2038 3584 2456 3584 
Q 2700 3584 2940 3529 
Q 3181 3475 3431 3366 
z
" transform="scale(0.015625)"/>
      <path id="DejaVuSans-Oblique-75" d="M 428 1388 
L 838 3500 
L 1416 3500 
L 1006 1409 
Q 975 1256 961 1147 
Q 947 1038 947 966 
Q 947 700 1109 554 
Q 1272 409 1569 409 
Q 2031 409 2368 721 
Q 2706 1034 2809 1563 
L 3194 3500 
L 3769 3500 
L 3091 0 
L 2516 0 
L 2631 550 
Q 2388 244 2052 76 
Q 1716 -91 1338 -91 
Q 878 -91 622 161 
Q 366 413 366 863 
Q 366 956 381 1097 
Q 397 1238 428 1388 
z
" transform="scale(0.015625)"/>
      <path id="DejaVuSans-Oblique-6e" d="M 3566 2113 
L 3156 0 
L 2578 0 
L 2988 2091 
Q 3016 2238 3031 2350 
Q 3047 2463 3047 2528 
Q 3047 2791 2881 2937 
Q 2716 3084 2419 3084 
Q 1956 3084 1622 2776 
Q 1288 2469 1184 1941 
L 800 0 
L 225 0 
L 903 3500 
L 1478 3500 
L 1363 2950 
Q 1603 3253 1940 3418 
Q 2278 3584 2650 3584 
Q 3113 3584 3367 3334 
Q 3622 3084 3622 2631 
Q 3622 2519 3608 2391 
Q 3594 2263 3566 2113 
z
" transform="scale(0.015625)"/>
     </defs>
     <use xlink:href="#DejaVuSans-Oblique-35"/>
     <use xlink:href="#DejaVuSans-Oblique-32" x="63.623047"/>
     <use xlink:href="#DejaVuSans-Oblique-34" x="127.246094"/>
     <use xlink:href="#DejaVuSans-Oblique-20" x="190.869141"/>
     <use xlink:href="#DejaVuSans-Oblique-70" x="222.65625"/>
     <use xlink:href="#DejaVuSans-Oblique-6f" x="286.132812"/>
     <use xlink:href="#DejaVuSans-Oblique-73" x="347.314453"/>
     <use xlink:href="#DejaVuSans-Oblique-74" x="399.414062"/>
     <use xlink:href="#DejaVuSans-Oblique-73" x="438.623047"/>
     <use xlink:href="#DejaVuSans-Oblique-20" x="490.722656"/>
     <use xlink:href="#DejaVuSans-Oblique-b7" x="522.509766"/>
     <use xlink:href="#DejaVuSans-Oblique-20" x="554.296875"/>
     <use xlink:href="#DejaVuSans-Oblique-37" x="586.083984"/>
     <use xlink:href="#DejaVuSans-Oblique-38" x="649.707031"/>
     <use xlink:href="#DejaVuSans-Oblique-20" x="713.330078"/>
     <use xlink:href="#DejaVuSans-Oblique-61" x="745.117188"/>
     <use xlink:href="#DejaVuSans-Oblique-63" x="806.396484"/>
     <use xlink:href="#DejaVuSans-Oblique-63" x="861.376953"/>
     <use xlink:href="#DejaVuSans-Oblique-6f" x="916.357422"/>
     <use xlink:href="#DejaVuSans-Oblique-75" x="977.539062"/>
     <use xlink:href="#DejaVuSans-Oblique-6e" x="1040.917969"/>
     <use xlink:href="#DejaVuSans-Oblique-74" x="1104.296875"/>
     <use xlink:href="#DejaVuSans-Oblique-73" x="1143.505859"/>
    </g>
    <!-- 8 policy topics -->
    <g style="fill: #6b7280" transform="translate(35.4798 100.72739) scale(0.079 -0.079)">
     <defs>
      <path id="DejaVuSans-Oblique-6c" d="M 1172 4863 
L 1747 4863 
L 800 0 
L 225 0 
L 1172 4863 
z
" transform="scale(0.015625)"/>
      <path id="DejaVuSans-Oblique-69" d="M 1172 4863 
L 1747 4863 
L 1606 4134 
L 1031 4134 
L 1172 4863 
z
M 909 3500 
L 1484 3500 
L 800 0 
L 225 0 
L 909 3500 
z
" transform="scale(0.015625)"/>
      <path id="DejaVuSans-Oblique-79" d="M 1588 -325 
Q 1188 -997 936 -1164 
Q 684 -1331 294 -1331 
L -159 -1331 
L -63 -850 
L 269 -850 
Q 509 -850 678 -719 
Q 847 -588 1056 -206 
L 1234 128 
L 459 3500 
L 1069 3500 
L 1650 819 
L 3256 3500 
L 3859 3500 
L 1588 -325 
z
" transform="scale(0.015625)"/>
     </defs>
     <use xlink:href="#DejaVuSans-Oblique-38"/>
     <use xlink:href="#DejaVuSans-Oblique-20" x="63.623047"/>
     <use xlink:href="#DejaVuSans-Oblique-70" x="95.410156"/>
     <use xlink:href="#DejaVuSans-Oblique-6f" x="158.886719"/>
     <use xlink:href="#DejaVuSans-Oblique-6c" x="220.068359"/>
     <use xlink:href="#DejaVuSans-Oblique-69" x="247.851562"/>
     <use xlink:href="#DejaVuSans-Oblique-63" x="275.634766"/>
     <use xlink:href="#DejaVuSans-Oblique-79" x="330.615234"/>
     <use xlink:href="#DejaVuSans-Oblique-20" x="389.794922"/>
     <use xlink:href="#DejaVuSans-Oblique-74" x="421.582031"/>
     <use xlink:href="#DejaVuSans-Oblique-6f" x="460.791016"/>
     <use xlink:href="#DejaVuSans-Oblique-70" x="521.972656"/>
     <use xlink:href="#DejaVuSans-Oblique-69" x="585.449219"/>
     <use xlink:href="#DejaVuSans-Oblique-63" x="613.232422"/>
     <use xlink:href="#DejaVuSans-Oblique-73" x="668.212891"/>
    </g>
   </g>
   <g id="text_3">
    <!-- De-identified -->
    <g style="fill: #2b2f38" transform="translate(147.740308 32.892761) scale(0.1 -0.1)">
     <defs>
      <path id="DejaVuSans-Bold-2d" d="M 347 2297 
L 2309 2297 
L 2309 1388 
L 347 1388 
L 347 2297 
z
" transform="scale(0.015625)"/>
      <path id="DejaVuSans-Bold-66" d="M 2841 4863 
L 2841 4128 
L 2222 4128 
Q 1984 4128 1890 4042 
Q 1797 3956 1797 3744 
L 1797 3500 
L 2753 3500 
L 2753 2700 
L 1797 2700 
L 1797 0 
L 678 0 
L 678 2700 
L 122 2700 
L 122 3500 
L 678 3500 
L 678 3744 
Q 678 4316 997 4589 
Q 1316 4863 1984 4863 
L 2841 4863 
z
" transform="scale(0.015625)"/>
     </defs>
     <use xlink:href="#DejaVuSans-Bold-44"/>
     <use xlink:href="#DejaVuSans-Bold-65" x="83.007812"/>
     <use xlink:href="#DejaVuSans-Bold-2d" x="150.830078"/>
     <use xlink:href="#DejaVuSans-Bold-69" x="192.333984"/>
     <use xlink:href="#DejaVuSans-Bold-64" x="226.611328"/>
     <use xlink:href="#DejaVuSans-Bold-65" x="298.193359"/>
     <use xlink:href="#DejaVuSans-Bold-6e" x="366.015625"/>
     <use xlink:href="#DejaVuSans-Bold-74" x="437.207031"/>
     <use xlink:href="#DejaVuSans-Bold-69" x="485.009766"/>
     <use xlink:href="#DejaVuSans-Bold-66" x="519.287109"/>
     <use xlink:href="#DejaVuSans-Bold-69" x="562.792969"/>
     <use xlink:href="#DejaVuSans-Bold-65" x="597.070312"/>
     <use xlink:href="#DejaVuSans-Bold-64" x="664.892578"/>
    </g>
    <!-- account-level -->
    <g style="fill: #2b2f38" transform="translate(146.773121 44.090573) scale(0.1 -0.1)">
     <defs>
      <path id="DejaVuSans-Bold-61" d="M 2106 1575 
Q 1756 1575 1579 1456 
Q 1403 1338 1403 1106 
Q 1403 894 1545 773 
Q 1688 653 1941 653 
Q 2256 653 2472 879 
Q 2688 1106 2688 1447 
L 2688 1575 
L 2106 1575 
z
M 3816 1997 
L 3816 0 
L 2688 0 
L 2688 519 
Q 2463 200 2181 54 
Q 1900 -91 1497 -91 
Q 953 -91 614 226 
Q 275 544 275 1050 
Q 275 1666 698 1953 
Q 1122 2241 2028 2241 
L 2688 2241 
L 2688 2328 
Q 2688 2594 2478 2717 
Q 2269 2841 1825 2841 
Q 1466 2841 1156 2769 
Q 847 2697 581 2553 
L 581 3406 
Q 941 3494 1303 3539 
Q 1666 3584 2028 3584 
Q 2975 3584 3395 3211 
Q 3816 2838 3816 1997 
z
" transform="scale(0.015625)"/>
      <path id="DejaVuSans-Bold-6c" d="M 538 4863 
L 1656 4863 
L 1656 0 
L 538 0 
L 538 4863 
z
" transform="scale(0.015625)"/>
      <path id="DejaVuSans-Bold-76" d="M 97 3500 
L 1216 3500 
L 2088 1081 
L 2956 3500 
L 4078 3500 
L 2700 0 
L 1472 0 
L 97 3500 
z
" transform="scale(0.015625)"/>
     </defs>
     <use xlink:href="#DejaVuSans-Bold-61"/>
     <use xlink:href="#DejaVuSans-Bold-63" x="67.480469"/>
     <use xlink:href="#DejaVuSans-Bold-63" x="126.757812"/>
     <use xlink:href="#DejaVuSans-Bold-6f" x="186.035156"/>
     <use xlink:href="#DejaVuSans-Bold-75" x="254.736328"/>
     <use xlink:href="#DejaVuSans-Bold-6e" x="325.927734"/>
     <use xlink:href="#DejaVuSans-Bold-74" x="397.119141"/>
     <use xlink:href="#DejaVuSans-Bold-2d" x="444.921875"/>
     <use xlink:href="#DejaVuSans-Bold-6c" x="486.425781"/>
     <use xlink:href="#DejaVuSans-Bold-65" x="520.703125"/>
     <use xlink:href="#DejaVuSans-Bold-76" x="588.525391"/>
     <use xlink:href="#DejaVuSans-Bold-65" x="653.710938"/>
     <use xlink:href="#DejaVuSans-Bold-6c" x="721.533203"/>
    </g>
    <!-- aggregates -->
    <g style="fill: #2b2f38" transform="translate(152.465308 55.288386) scale(0.1 -0.1)">
     <defs>
      <path id="DejaVuSans-Bold-67" d="M 2919 594 
Q 2688 288 2409 144 
Q 2131 0 1766 0 
Q 1125 0 706 504 
Q 288 1009 288 1791 
Q 288 2575 706 3076 
Q 1125 3578 1766 3578 
Q 2131 3578 2409 3434 
Q 2688 3291 2919 2981 
L 2919 3500 
L 4044 3500 
L 4044 353 
Q 4044 -491 3511 -936 
Q 2978 -1381 1966 -1381 
Q 1638 -1381 1331 -1331 
Q 1025 -1281 716 -1178 
L 716 -306 
Q 1009 -475 1290 -558 
Q 1572 -641 1856 -641 
Q 2406 -641 2662 -400 
Q 2919 -159 2919 353 
L 2919 594 
z
M 2181 2772 
Q 1834 2772 1640 2515 
Q 1447 2259 1447 1791 
Q 1447 1309 1634 1061 
Q 1822 813 2181 813 
Q 2531 813 2725 1069 
Q 2919 1325 2919 1791 
Q 2919 2259 2725 2515 
Q 2531 2772 2181 2772 
z
" transform="scale(0.015625)"/>
     </defs>
     <use xlink:href="#DejaVuSans-Bold-61"/>
     <use xlink:href="#DejaVuSans-Bold-67" x="67.480469"/>
     <use xlink:href="#DejaVuSans-Bold-67" x="139.0625"/>
     <use xlink:href="#DejaVuSans-Bold-72" x="210.644531"/>
     <use xlink:href="#DejaVuSans-Bold-65" x="259.960938"/>
     <use xlink:href="#DejaVuSans-Bold-67" x="327.783203"/>
     <use xlink:href="#DejaVuSans-Bold-61" x="399.365234"/>
     <use xlink:href="#DejaVuSans-Bold-74" x="466.845703"/>
     <use xlink:href="#DejaVuSans-Bold-65" x="514.648438"/>
     <use xlink:href="#DejaVuSans-Bold-73" x="582.470703"/>
    </g>
   </g>
   <g id="text_4">
    <!-- no usernames or -->
    <g style="fill: #6b7280" transform="translate(151.217886 91.881118) scale(0.079 -0.079)">
     <defs>
      <path id="DejaVuSans-Oblique-65" d="M 3078 2063 
Q 3088 2113 3092 2166 
Q 3097 2219 3097 2272 
Q 3097 2653 2873 2875 
Q 2650 3097 2266 3097 
Q 1838 3097 1509 2826 
Q 1181 2556 1013 2059 
L 3078 2063 
z
M 3578 1613 
L 903 1613 
Q 884 1494 878 1425 
Q 872 1356 872 1306 
Q 872 872 1139 634 
Q 1406 397 1894 397 
Q 2269 397 2603 481 
Q 2938 566 3225 728 
L 3116 159 
Q 2806 34 2476 -28 
Q 2147 -91 1806 -91 
Q 1078 -91 686 257 
Q 294 606 294 1247 
Q 294 1794 489 2264 
Q 684 2734 1063 3103 
Q 1306 3334 1642 3459 
Q 1978 3584 2356 3584 
Q 2950 3584 3301 3228 
Q 3653 2872 3653 2272 
Q 3653 2128 3634 1964 
Q 3616 1800 3578 1613 
z
" transform="scale(0.015625)"/>
      <path id="DejaVuSans-Oblique-72" d="M 2853 2969 
Q 2766 3016 2653 3041 
Q 2541 3066 2413 3066 
Q 1953 3066 1609 2717 
Q 1266 2369 1153 1784 
L 800 0 
L 225 0 
L 909 3500 
L 1484 3500 
L 1375 2956 
Q 1603 3259 1920 3421 
Q 2238 3584 2597 3584 
Q 2691 3584 2781 3573 
Q 2872 3563 2963 3538 
L 2853 2969 
z
" transform="scale(0.015625)"/>
      <path id="DejaVuSans-Oblique-6d" d="M 5747 2113 
L 5338 0 
L 4763 0 
L 5166 2094 
Q 5191 2228 5203 2325 
Q 5216 2422 5216 2491 
Q 5216 2772 5059 2928 
Q 4903 3084 4622 3084 
Q 4203 3084 3875 2770 
Q 3547 2456 3450 1953 
L 3066 0 
L 2491 0 
L 2900 2094 
Q 2925 2209 2937 2307 
Q 2950 2406 2950 2484 
Q 2950 2769 2794 2926 
Q 2638 3084 2363 3084 
Q 1938 3084 1609 2770 
Q 1281 2456 1184 1953 
L 800 0 
L 225 0 
L 909 3500 
L 1484 3500 
L 1375 2956 
Q 1609 3263 1923 3423 
Q 2238 3584 2597 3584 
Q 2978 3584 3223 3384 
Q 3469 3184 3519 2828 
Q 3781 3197 4126 3390 
Q 4472 3584 4856 3584 
Q 5306 3584 5551 3325 
Q 5797 3066 5797 2591 
Q 5797 2488 5784 2364 
Q 5772 2241 5747 2113 
z
" transform="scale(0.015625)"/>
     </defs>
     <use xlink:href="#DejaVuSans-Oblique-6e"/>
     <use xlink:href="#DejaVuSans-Oblique-6f" x="63.378906"/>
     <use xlink:href="#DejaVuSans-Oblique-20" x="124.560547"/>
     <use xlink:href="#DejaVuSans-Oblique-75" x="156.347656"/>
     <use xlink:href="#DejaVuSans-Oblique-73" x="219.726562"/>
     <use xlink:href="#DejaVuSans-Oblique-65" x="271.826172"/>
     <use xlink:href="#DejaVuSans-Oblique-72" x="333.349609"/>
     <use xlink:href="#DejaVuSans-Oblique-6e" x="374.462891"/>
     <use xlink:href="#DejaVuSans-Oblique-61" x="437.841797"/>
     <use xlink:href="#DejaVuSans-Oblique-6d" x="499.121094"/>
     <use xlink:href="#DejaVuSans-Oblique-65" x="596.533203"/>
     <use xlink:href="#DejaVuSans-Oblique-73" x="658.056641"/>
     <use xlink:href="#DejaVuSans-Oblique-20" x="710.15625"/>
     <use xlink:href="#DejaVuSans-Oblique-6f" x="741.943359"/>
     <use xlink:href="#DejaVuSans-Oblique-72" x="803.125"/>
    </g>
    <!-- post text retained -->
    <g style="fill: #6b7280" transform="translate(149.095379 100.72739) scale(0.079 -0.079)">
     <defs>
      <path id="DejaVuSans-Oblique-78" d="M 3841 3500 
L 2234 1784 
L 3219 0 
L 2559 0 
L 1819 1388 
L 531 0 
L -166 0 
L 1556 1844 
L 641 3500 
L 1300 3500 
L 1972 2234 
L 3144 3500 
L 3841 3500 
z
" transform="scale(0.015625)"/>
      <path id="DejaVuSans-Oblique-64" d="M 2675 525 
Q 2444 222 2128 65 
Q 1813 -91 1428 -91 
Q 903 -91 598 267 
Q 294 625 294 1247 
Q 294 1766 478 2236 
Q 663 2706 1013 3078 
Q 1244 3325 1534 3454 
Q 1825 3584 2144 3584 
Q 2481 3584 2739 3421 
Q 2997 3259 3138 2956 
L 3513 4863 
L 4091 4863 
L 3144 0 
L 2566 0 
L 2675 525 
z
M 891 1350 
Q 891 897 1095 644 
Q 1300 391 1663 391 
Q 1931 391 2161 520 
Q 2391 650 2566 903 
Q 2750 1166 2856 1509 
Q 2963 1853 2963 2188 
Q 2963 2622 2758 2865 
Q 2553 3109 2194 3109 
Q 1922 3109 1687 2981 
Q 1453 2853 1288 2613 
Q 1106 2353 998 2009 
Q 891 1666 891 1350 
z
" transform="scale(0.015625)"/>
     </defs>
     <use xlink:href="#DejaVuSans-Oblique-70"/>
     <use xlink:href="#DejaVuSans-Oblique-6f" x="63.476562"/>
     <use xlink:href="#DejaVuSans-Oblique-73" x="124.658203"/>
     <use xlink:href="#DejaVuSans-Oblique-74" x="176.757812"/>
     <use xlink:href="#DejaVuSans-Oblique-20" x="215.966797"/>
     <use xlink:href="#DejaVuSans-Oblique-74" x="247.753906"/>
     <use xlink:href="#DejaVuSans-Oblique-65" x="286.962891"/>
     <use xlink:href="#DejaVuSans-Oblique-78" x="348.486328"/>
     <use xlink:href="#DejaVuSans-Oblique-74" x="407.666016"/>
     <use xlink:href="#DejaVuSans-Oblique-20" x="446.875"/>
     <use xlink:href="#DejaVuSans-Oblique-72" x="478.662109"/>
     <use xlink:href="#DejaVuSans-Oblique-65" x="519.775391"/>
     <use xlink:href="#DejaVuSans-Oblique-74" x="581.298828"/>
     <use xlink:href="#DejaVuSans-Oblique-61" x="620.507812"/>
     <use xlink:href="#DejaVuSans-Oblique-69" x="681.787109"/>
     <use xlink:href="#DejaVuSans-Oblique-6e" x="709.570312"/>
     <use xlink:href="#DejaVuSans-Oblique-65" x="772.949219"/>
     <use xlink:href="#DejaVuSans-Oblique-64" x="834.472656"/>
    </g>
   </g>
   <g id="text_5">
    <!-- Four fingerprint -->
    <g style="fill: #2b2f38" transform="translate(260.187699 33.656779) scale(0.1 -0.1)">
     <defs>
      <path id="DejaVuSans-Bold-46" d="M 588 4666 
L 3834 4666 
L 3834 3756 
L 1791 3756 
L 1791 2888 
L 3713 2888 
L 3713 1978 
L 1791 1978 
L 1791 0 
L 588 0 
L 588 4666 
z
" transform="scale(0.015625)"/>
     </defs>
     <use xlink:href="#DejaVuSans-Bold-46"/>
     <use xlink:href="#DejaVuSans-Bold-6f" x="64.310547"/>
     <use xlink:href="#DejaVuSans-Bold-75" x="133.011719"/>
     <use xlink:href="#DejaVuSans-Bold-72" x="204.203125"/>
     <use xlink:href="#DejaVuSans-Bold-20" x="253.519531"/>
     <use xlink:href="#DejaVuSans-Bold-66" x="288.333984"/>
     <use xlink:href="#DejaVuSans-Bold-69" x="331.839844"/>
     <use xlink:href="#DejaVuSans-Bold-6e" x="366.117188"/>
     <use xlink:href="#DejaVuSans-Bold-67" x="437.308594"/>
     <use xlink:href="#DejaVuSans-Bold-65" x="508.890625"/>
     <use xlink:href="#DejaVuSans-Bold-72" x="576.712891"/>
     <use xlink:href="#DejaVuSans-Bold-70" x="626.029297"/>
     <use xlink:href="#DejaVuSans-Bold-72" x="697.611328"/>
     <use xlink:href="#DejaVuSans-Bold-69" x="746.927734"/>
     <use xlink:href="#DejaVuSans-Bold-6e" x="781.205078"/>
     <use xlink:href="#DejaVuSans-Bold-74" x="852.396484"/>
    </g>
    <!-- signals -->
    <g style="fill: #2b2f38" transform="translate(285.304106 44.932716) scale(0.1 -0.1)">
     <use xlink:href="#DejaVuSans-Bold-73"/>
     <use xlink:href="#DejaVuSans-Bold-69" x="59.521484"/>
     <use xlink:href="#DejaVuSans-Bold-67" x="93.798828"/>
     <use xlink:href="#DejaVuSans-Bold-6e" x="165.380859"/>
     <use xlink:href="#DejaVuSans-Bold-61" x="236.572266"/>
     <use xlink:href="#DejaVuSans-Bold-6c" x="304.052734"/>
     <use xlink:href="#DejaVuSans-Bold-73" x="338.330078"/>
    </g>
   </g>
   <g id="text_6">
    <!-- computed per -->
    <g style="fill: #6b7280" transform="translate(277.445074 91.881118) scale(0.079 -0.079)">
     <use xlink:href="#DejaVuSans-Oblique-63"/>
     <use xlink:href="#DejaVuSans-Oblique-6f" x="54.980469"/>
     <use xlink:href="#DejaVuSans-Oblique-6d" x="116.162109"/>
     <use xlink:href="#DejaVuSans-Oblique-70" x="213.574219"/>
     <use xlink:href="#DejaVuSans-Oblique-75" x="277.050781"/>
     <use xlink:href="#DejaVuSans-Oblique-74" x="340.429688"/>
     <use xlink:href="#DejaVuSans-Oblique-65" x="379.638672"/>
     <use xlink:href="#DejaVuSans-Oblique-64" x="441.162109"/>
     <use xlink:href="#DejaVuSans-Oblique-20" x="504.638672"/>
     <use xlink:href="#DejaVuSans-Oblique-70" x="536.425781"/>
     <use xlink:href="#DejaVuSans-Oblique-65" x="599.902344"/>
     <use xlink:href="#DejaVuSans-Oblique-72" x="661.425781"/>
    </g>
    <!-- account -->
    <g style="fill: #6b7280" transform="translate(289.459863 100.72739) scale(0.079 -0.079)">
     <use xlink:href="#DejaVuSans-Oblique-61"/>
     <use xlink:href="#DejaVuSans-Oblique-63" x="61.279297"/>
     <use xlink:href="#DejaVuSans-Oblique-63" x="116.259766"/>
     <use xlink:href="#DejaVuSans-Oblique-6f" x="171.240234"/>
     <use xlink:href="#DejaVuSans-Oblique-75" x="232.421875"/>
     <use xlink:href="#DejaVuSans-Oblique-6e" x="295.800781"/>
     <use xlink:href="#DejaVuSans-Oblique-74" x="359.179688"/>
    </g>
   </g>
   <g id="text_7">
    <!-- Composite -->
    <g style="fill: #2b2f38" transform="translate(396.028059 33.695841) scale(0.1 -0.1)">
     <defs>
      <path id="DejaVuSans-Bold-43" d="M 4288 256 
Q 3956 84 3597 -3 
Q 3238 -91 2847 -91 
Q 1681 -91 1000 561 
Q 319 1213 319 2328 
Q 319 3447 1000 4098 
Q 1681 4750 2847 4750 
Q 3238 4750 3597 4662 
Q 3956 4575 4288 4403 
L 4288 3438 
Q 3953 3666 3628 3772 
Q 3303 3878 2944 3878 
Q 2300 3878 1931 3465 
Q 1563 3053 1563 2328 
Q 1563 1606 1931 1193 
Q 2300 781 2944 781 
Q 3303 781 3628 887 
Q 3953 994 4288 1222 
L 4288 256 
z
" transform="scale(0.015625)"/>
      <path id="DejaVuSans-Bold-6d" d="M 3781 2919 
Q 3994 3244 4286 3414 
Q 4578 3584 4928 3584 
Q 5531 3584 5847 3212 
Q 6163 2841 6163 2131 
L 6163 0 
L 5038 0 
L 5038 1825 
Q 5041 1866 5042 1909 
Q 5044 1953 5044 2034 
Q 5044 2406 4934 2573 
Q 4825 2741 4581 2741 
Q 4263 2741 4089 2478 
Q 3916 2216 3909 1719 
L 3909 0 
L 2784 0 
L 2784 1825 
Q 2784 2406 2684 2573 
Q 2584 2741 2328 2741 
Q 2006 2741 1831 2477 
Q 1656 2213 1656 1722 
L 1656 0 
L 531 0 
L 531 3500 
L 1656 3500 
L 1656 2988 
Q 1863 3284 2130 3434 
Q 2397 3584 2719 3584 
Q 3081 3584 3359 3409 
Q 3638 3234 3781 2919 
z
" transform="scale(0.015625)"/>
     </defs>
     <use xlink:href="#DejaVuSans-Bold-43"/>
     <use xlink:href="#DejaVuSans-Bold-6f" x="73.388672"/>
     <use xlink:href="#DejaVuSans-Bold-6d" x="142.089844"/>
     <use xlink:href="#DejaVuSans-Bold-70" x="246.289062"/>
     <use xlink:href="#DejaVuSans-Bold-6f" x="317.871094"/>
     <use xlink:href="#DejaVuSans-Bold-73" x="386.572266"/>
     <use xlink:href="#DejaVuSans-Bold-69" x="446.09375"/>
     <use xlink:href="#DejaVuSans-Bold-74" x="480.371094"/>
     <use xlink:href="#DejaVuSans-Bold-65" x="528.173828"/>
    </g>
    <!-- fingerprint score -->
    <g style="fill: #2b2f38" transform="translate(378.263215 44.893654) scale(0.1 -0.1)">
     <use xlink:href="#DejaVuSans-Bold-66"/>
     <use xlink:href="#DejaVuSans-Bold-69" x="43.505859"/>
     <use xlink:href="#DejaVuSans-Bold-6e" x="77.783203"/>
     <use xlink:href="#DejaVuSans-Bold-67" x="148.974609"/>
     <use xlink:href="#DejaVuSans-Bold-65" x="220.556641"/>
     <use xlink:href="#DejaVuSans-Bold-72" x="288.378906"/>
     <use xlink:href="#DejaVuSans-Bold-70" x="337.695312"/>
     <use xlink:href="#DejaVuSans-Bold-72" x="409.277344"/>
     <use xlink:href="#DejaVuSans-Bold-69" x="458.59375"/>
     <use xlink:href="#DejaVuSans-Bold-6e" x="492.871094"/>
     <use xlink:href="#DejaVuSans-Bold-74" x="564.0625"/>
     <use xlink:href="#DejaVuSans-Bold-20" x="611.865234"/>
     <use xlink:href="#DejaVuSans-Bold-73" x="646.679688"/>
     <use xlink:href="#DejaVuSans-Bold-63" x="706.201172"/>
     <use xlink:href="#DejaVuSans-Bold-6f" x="765.478516"/>
     <use xlink:href="#DejaVuSans-Bold-72" x="834.179688"/>
     <use xlink:href="#DejaVuSans-Bold-65" x="883.496094"/>
    </g>
   </g>
   <g id="text_8">
    <!-- equal-weight mean -->
    <g style="fill: #6b7280" transform="translate(387.66859 83.861113) scale(0.079 -0.079)">
     <defs>
      <path id="DejaVuSans-Oblique-71" d="M 2669 525 
Q 2438 222 2123 65 
Q 1809 -91 1428 -91 
Q 897 -91 595 267 
Q 294 625 294 1253 
Q 294 1759 480 2231 
Q 666 2703 1013 3078 
Q 1238 3322 1530 3453 
Q 1822 3584 2144 3584 
Q 2531 3584 2781 3431 
Q 3031 3278 3144 2969 
L 3244 3494 
L 3822 3494 
L 2888 -1319 
L 2309 -1319 
L 2669 525 
z
M 891 1338 
Q 891 875 1084 633 
Q 1278 391 1644 391 
Q 2188 391 2572 911 
Q 2956 1431 2956 2175 
Q 2956 2625 2757 2864 
Q 2559 3103 2188 3103 
Q 1916 3103 1684 2976 
Q 1453 2850 1281 2606 
Q 1100 2350 995 2006 
Q 891 1663 891 1338 
z
" transform="scale(0.015625)"/>
      <path id="DejaVuSans-Oblique-2d" d="M 391 2009 
L 2075 2009 
L 1978 1497 
L 288 1497 
L 391 2009 
z
" transform="scale(0.015625)"/>
      <path id="DejaVuSans-Oblique-77" d="M 544 3500 
L 1113 3500 
L 1259 684 
L 2566 3500 
L 3231 3500 
L 3425 684 
L 4666 3500 
L 5241 3500 
L 3641 0 
L 2969 0 
L 2797 2900 
L 1459 0 
L 781 0 
L 544 3500 
z
" transform="scale(0.015625)"/>
      <path id="DejaVuSans-Oblique-67" d="M 3816 3500 
L 3219 434 
Q 3047 -456 2561 -893 
Q 2075 -1331 1253 -1331 
Q 950 -1331 690 -1286 
Q 431 -1241 206 -1147 
L 313 -588 
Q 525 -725 762 -790 
Q 1000 -856 1269 -856 
Q 1816 -856 2167 -557 
Q 2519 -259 2631 300 
L 2681 563 
Q 2441 288 2122 144 
Q 1803 0 1434 0 
Q 903 0 598 351 
Q 294 703 294 1319 
Q 294 1803 478 2267 
Q 663 2731 997 3091 
Q 1219 3328 1514 3456 
Q 1809 3584 2131 3584 
Q 2484 3584 2746 3420 
Q 3009 3256 3138 2956 
L 3238 3500 
L 3816 3500 
z
M 2950 2216 
Q 2950 2641 2750 2872 
Q 2550 3103 2181 3103 
Q 1953 3103 1747 3012 
Q 1541 2922 1394 2759 
Q 1156 2491 1023 2127 
Q 891 1763 891 1375 
Q 891 944 1092 712 
Q 1294 481 1672 481 
Q 2219 481 2584 976 
Q 2950 1472 2950 2216 
z
" transform="scale(0.015625)"/>
      <path id="DejaVuSans-Oblique-68" d="M 3566 2113 
L 3156 0 
L 2578 0 
L 2988 2091 
Q 3016 2238 3031 2350 
Q 3047 2463 3047 2528 
Q 3047 2791 2881 2937 
Q 2716 3084 2419 3084 
Q 1956 3084 1617 2771 
Q 1278 2459 1178 1941 
L 800 0 
L 225 0 
L 1172 4863 
L 1747 4863 
L 1375 2950 
Q 1594 3244 1934 3414 
Q 2275 3584 2650 3584 
Q 3113 3584 3367 3334 
Q 3622 3084 3622 2631 
Q 3622 2519 3608 2391 
Q 3594 2263 3566 2113 
z
" transform="scale(0.015625)"/>
     </defs>
     <use xlink:href="#DejaVuSans-Oblique-65"/>
     <use xlink:href="#DejaVuSans-Oblique-71" x="61.523438"/>
     <use xlink:href="#DejaVuSans-Oblique-75" x="125"/>
     <use xlink:href="#DejaVuSans-Oblique-61" x="188.378906"/>
     <use xlink:href="#DejaVuSans-Oblique-6c" x="249.658203"/>
     <use xlink:href="#DejaVuSans-Oblique-2d" x="277.441406"/>
     <use xlink:href="#DejaVuSans-Oblique-77" x="313.525391"/>
     <use xlink:href="#DejaVuSans-Oblique-65" x="395.3125"/>
     <use xlink:href="#DejaVuSans-Oblique-69" x="456.835938"/>
     <use xlink:href="#DejaVuSans-Oblique-67" x="484.619141"/>
     <use xlink:href="#DejaVuSans-Oblique-68" x="548.095703"/>
     <use xlink:href="#DejaVuSans-Oblique-74" x="611.474609"/>
     <use xlink:href="#DejaVuSans-Oblique-20" x="650.683594"/>
     <use xlink:href="#DejaVuSans-Oblique-6d" x="682.470703"/>
     <use xlink:href="#DejaVuSans-Oblique-65" x="779.882812"/>
     <use xlink:href="#DejaVuSans-Oblique-61" x="841.40625"/>
     <use xlink:href="#DejaVuSans-Oblique-6e" x="902.685547"/>
    </g>
    <!-- of standardised -->
    <g style="fill: #6b7280" transform="translate(395.082246 92.707385) scale(0.079 -0.079)">
     <defs>
      <path id="DejaVuSans-Oblique-66" d="M 3059 4863 
L 2969 4384 
L 2419 4384 
Q 2106 4384 1964 4261 
Q 1822 4138 1753 3809 
L 1691 3500 
L 2638 3500 
L 2553 3053 
L 1606 3053 
L 1013 0 
L 434 0 
L 1031 3053 
L 481 3053 
L 563 3500 
L 1113 3500 
L 1159 3744 
Q 1278 4363 1576 4613 
Q 1875 4863 2516 4863 
L 3059 4863 
z
" transform="scale(0.015625)"/>
     </defs>
     <use xlink:href="#DejaVuSans-Oblique-6f"/>
     <use xlink:href="#DejaVuSans-Oblique-66" x="61.181641"/>
     <use xlink:href="#DejaVuSans-Oblique-20" x="96.386719"/>
     <use xlink:href="#DejaVuSans-Oblique-73" x="128.173828"/>
     <use xlink:href="#DejaVuSans-Oblique-74" x="180.273438"/>
     <use xlink:href="#DejaVuSans-Oblique-61" x="219.482422"/>
     <use xlink:href="#DejaVuSans-Oblique-6e" x="280.761719"/>
     <use xlink:href="#DejaVuSans-Oblique-64" x="344.140625"/>
     <use xlink:href="#DejaVuSans-Oblique-61" x="407.617188"/>
     <use xlink:href="#DejaVuSans-Oblique-72" x="468.896484"/>
     <use xlink:href="#DejaVuSans-Oblique-64" x="510.009766"/>
     <use xlink:href="#DejaVuSans-Oblique-69" x="573.486328"/>
     <use xlink:href="#DejaVuSans-Oblique-73" x="601.269531"/>
     <use xlink:href="#DejaVuSans-Oblique-65" x="653.369141"/>
     <use xlink:href="#DejaVuSans-Oblique-64" x="714.892578"/>
    </g>
    <!-- signals -->
    <g style="fill: #6b7280" transform="translate(412.086379 101.553656) scale(0.079 -0.079)">
     <use xlink:href="#DejaVuSans-Oblique-73"/>
     <use xlink:href="#DejaVuSans-Oblique-69" x="52.099609"/>
     <use xlink:href="#DejaVuSans-Oblique-67" x="79.882812"/>
     <use xlink:href="#DejaVuSans-Oblique-6e" x="143.359375"/>
     <use xlink:href="#DejaVuSans-Oblique-61" x="206.738281"/>
     <use xlink:href="#DejaVuSans-Oblique-6c" x="268.017578"/>
     <use xlink:href="#DejaVuSans-Oblique-73" x="295.800781"/>
    </g>
   </g>
   <g id="text_9">
    <!-- Human expert -->
    <g style="fill: #2b2f38" transform="translate(506.389512 33.734904) scale(0.1 -0.1)">
     <defs>
      <path id="DejaVuSans-Bold-48" d="M 588 4666 
L 1791 4666 
L 1791 2888 
L 3566 2888 
L 3566 4666 
L 4769 4666 
L 4769 0 
L 3566 0 
L 3566 1978 
L 1791 1978 
L 1791 0 
L 588 0 
L 588 4666 
z
" transform="scale(0.015625)"/>
      <path id="DejaVuSans-Bold-78" d="M 1422 1791 
L 159 3500 
L 1344 3500 
L 2059 2463 
L 2784 3500 
L 3969 3500 
L 2706 1797 
L 4031 0 
L 2847 0 
L 2059 1106 
L 1281 0 
L 97 0 
L 1422 1791 
z
" transform="scale(0.015625)"/>
     </defs>
     <use xlink:href="#DejaVuSans-Bold-48"/>
     <use xlink:href="#DejaVuSans-Bold-75" x="83.691406"/>
     <use xlink:href="#DejaVuSans-Bold-6d" x="154.882812"/>
     <use xlink:href="#DejaVuSans-Bold-61" x="259.082031"/>
     <use xlink:href="#DejaVuSans-Bold-6e" x="326.5625"/>
     <use xlink:href="#DejaVuSans-Bold-20" x="397.753906"/>
     <use xlink:href="#DejaVuSans-Bold-65" x="432.568359"/>
     <use xlink:href="#DejaVuSans-Bold-78" x="500.390625"/>
     <use xlink:href="#DejaVuSans-Bold-70" x="564.892578"/>
     <use xlink:href="#DejaVuSans-Bold-65" x="636.474609"/>
     <use xlink:href="#DejaVuSans-Bold-72" x="704.296875"/>
     <use xlink:href="#DejaVuSans-Bold-74" x="753.613281"/>
    </g>
    <!-- review -->
    <g style="fill: #2b2f38" transform="translate(527.618419 44.932716) scale(0.1 -0.1)">
     <defs>
      <path id="DejaVuSans-Bold-77" d="M 225 3500 
L 1313 3500 
L 1900 1088 
L 2491 3500 
L 3425 3500 
L 4013 1113 
L 4603 3500 
L 5691 3500 
L 4769 0 
L 3547 0 
L 2956 2406 
L 2369 0 
L 1147 0 
L 225 3500 
z
" transform="scale(0.015625)"/>
     </defs>
     <use xlink:href="#DejaVuSans-Bold-72"/>
     <use xlink:href="#DejaVuSans-Bold-65" x="49.316406"/>
     <use xlink:href="#DejaVuSans-Bold-76" x="117.138672"/>
     <use xlink:href="#DejaVuSans-Bold-69" x="182.324219"/>
     <use xlink:href="#DejaVuSans-Bold-65" x="216.601562"/>
     <use xlink:href="#DejaVuSans-Bold-77" x="284.423828"/>
    </g>
   </g>
   <g id="text_10">
    <!-- investigate account -->
    <g style="fill: #6b7280" transform="translate(507.488137 83.861113) scale(0.079 -0.079)">
     <defs>
      <path id="DejaVuSans-Oblique-76" d="M 459 3500 
L 1069 3500 
L 1581 525 
L 3256 3500 
L 3866 3500 
L 1875 0 
L 1100 0 
L 459 3500 
z
" transform="scale(0.015625)"/>
     </defs>
     <use xlink:href="#DejaVuSans-Oblique-69"/>
     <use xlink:href="#DejaVuSans-Oblique-6e" x="27.783203"/>
     <use xlink:href="#DejaVuSans-Oblique-76" x="91.162109"/>
     <use xlink:href="#DejaVuSans-Oblique-65" x="150.341797"/>
     <use xlink:href="#DejaVuSans-Oblique-73" x="211.865234"/>
     <use xlink:href="#DejaVuSans-Oblique-74" x="263.964844"/>
     <use xlink:href="#DejaVuSans-Oblique-69" x="303.173828"/>
     <use xlink:href="#DejaVuSans-Oblique-67" x="330.957031"/>
     <use xlink:href="#DejaVuSans-Oblique-61" x="394.433594"/>
     <use xlink:href="#DejaVuSans-Oblique-74" x="455.712891"/>
     <use xlink:href="#DejaVuSans-Oblique-65" x="494.921875"/>
     <use xlink:href="#DejaVuSans-Oblique-20" x="556.445312"/>
     <use xlink:href="#DejaVuSans-Oblique-61" x="588.232422"/>
     <use xlink:href="#DejaVuSans-Oblique-63" x="649.511719"/>
     <use xlink:href="#DejaVuSans-Oblique-63" x="704.492188"/>
     <use xlink:href="#DejaVuSans-Oblique-6f" x="759.472656"/>
     <use xlink:href="#DejaVuSans-Oblique-75" x="820.654297"/>
     <use xlink:href="#DejaVuSans-Oblique-6e" x="884.033203"/>
     <use xlink:href="#DejaVuSans-Oblique-74" x="947.412109"/>
    </g>
    <!-- patterns; no automated -->
    <g style="fill: #6b7280" transform="translate(499.413473 92.707385) scale(0.079 -0.079)">
     <defs>
      <path id="DejaVuSans-Oblique-3b" d="M 563 794 
L 1222 794 
L 1113 256 
L 409 -744 
L 6 -744 
L 453 256 
L 563 794 
z
M 1050 3309 
L 1709 3309 
L 1556 2516 
L 897 2516 
L 1050 3309 
z
" transform="scale(0.015625)"/>
     </defs>
     <use xlink:href="#DejaVuSans-Oblique-70"/>
     <use xlink:href="#DejaVuSans-Oblique-61" x="63.476562"/>
     <use xlink:href="#DejaVuSans-Oblique-74" x="124.755859"/>
     <use xlink:href="#DejaVuSans-Oblique-74" x="163.964844"/>
     <use xlink:href="#DejaVuSans-Oblique-65" x="203.173828"/>
     <use xlink:href="#DejaVuSans-Oblique-72" x="264.697266"/>
     <use xlink:href="#DejaVuSans-Oblique-6e" x="305.810547"/>
     <use xlink:href="#DejaVuSans-Oblique-73" x="369.189453"/>
     <use xlink:href="#DejaVuSans-Oblique-3b" x="421.289062"/>
     <use xlink:href="#DejaVuSans-Oblique-20" x="454.980469"/>
     <use xlink:href="#DejaVuSans-Oblique-6e" x="486.767578"/>
     <use xlink:href="#DejaVuSans-Oblique-6f" x="550.146484"/>
     <use xlink:href="#DejaVuSans-Oblique-20" x="611.328125"/>
     <use xlink:href="#DejaVuSans-Oblique-61" x="643.115234"/>
     <use xlink:href="#DejaVuSans-Oblique-75" x="704.394531"/>
     <use xlink:href="#DejaVuSans-Oblique-74" x="767.773438"/>
     <use xlink:href="#DejaVuSans-Oblique-6f" x="806.982422"/>
     <use xlink:href="#DejaVuSans-Oblique-6d" x="868.164062"/>
     <use xlink:href="#DejaVuSans-Oblique-61" x="965.576172"/>
     <use xlink:href="#DejaVuSans-Oblique-74" x="1026.855469"/>
     <use xlink:href="#DejaVuSans-Oblique-65" x="1066.064453"/>
     <use xlink:href="#DejaVuSans-Oblique-64" x="1127.587891"/>
    </g>
    <!-- labelling -->
    <g style="fill: #6b7280" transform="translate(529.700716 101.553656) scale(0.079 -0.079)">
     <defs>
      <path id="DejaVuSans-Oblique-62" d="M 3169 2138 
Q 3169 2591 2961 2847 
Q 2753 3103 2388 3103 
Q 2122 3103 1889 2973 
Q 1656 2844 1484 2597 
Q 1303 2338 1198 1995 
Q 1094 1653 1094 1313 
Q 1094 881 1298 636 
Q 1503 391 1863 391 
Q 2134 391 2365 517 
Q 2597 644 2772 891 
Q 2950 1147 3059 1487 
Q 3169 1828 3169 2138 
z
M 1381 2969 
Q 1594 3256 1914 3420 
Q 2234 3584 2584 3584 
Q 3122 3584 3439 3221 
Q 3756 2859 3756 2241 
Q 3756 1734 3570 1259 
Q 3384 784 3041 416 
Q 2816 172 2522 40 
Q 2228 -91 1906 -91 
Q 1566 -91 1316 65 
Q 1066 222 909 531 
L 806 0 
L 231 0 
L 1178 4863 
L 1753 4863 
L 1381 2969 
z
" transform="scale(0.015625)"/>
     </defs>
     <use xlink:href="#DejaVuSans-Oblique-6c"/>
     <use xlink:href="#DejaVuSans-Oblique-61" x="27.783203"/>
     <use xlink:href="#DejaVuSans-Oblique-62" x="89.0625"/>
     <use xlink:href="#DejaVuSans-Oblique-65" x="152.539062"/>
     <use xlink:href="#DejaVuSans-Oblique-6c" x="214.0625"/>
     <use xlink:href="#DejaVuSans-Oblique-6c" x="241.845703"/>
     <use xlink:href="#DejaVuSans-Oblique-69" x="269.628906"/>
     <use xlink:href="#DejaVuSans-Oblique-6e" x="297.412109"/>
     <use xlink:href="#DejaVuSans-Oblique-67" x="360.791016"/>
    </g>
   </g>
   <g id="text_11">
    <!-- Fingerprint signals · hypothesised coordinated pattern -->
    <g style="fill: #6a4fa3" transform="translate(166.138089 151.125151) scale(0.09 -0.09)">
     <defs>
      <path id="DejaVuSans-Bold-b7" d="M 653 2828 
L 1778 2828 
L 1778 1619 
L 653 1619 
L 653 2828 
z
" transform="scale(0.015625)"/>
     </defs>
     <use xlink:href="#DejaVuSans-Bold-46"/>
     <use xlink:href="#DejaVuSans-Bold-69" x="68.310547"/>
     <use xlink:href="#DejaVuSans-Bold-6e" x="102.587891"/>
     <use xlink:href="#DejaVuSans-Bold-67" x="173.779297"/>
     <use xlink:href="#DejaVuSans-Bold-65" x="245.361328"/>
     <use xlink:href="#DejaVuSans-Bold-72" x="313.183594"/>
     <use xlink:href="#DejaVuSans-Bold-70" x="362.5"/>
     <use xlink:href="#DejaVuSans-Bold-72" x="434.082031"/>
     <use xlink:href="#DejaVuSans-Bold-69" x="483.398438"/>
     <use xlink:href="#DejaVuSans-Bold-6e" x="517.675781"/>
     <use xlink:href="#DejaVuSans-Bold-74" x="588.867188"/>
     <use xlink:href="#DejaVuSans-Bold-20" x="636.669922"/>
     <use xlink:href="#DejaVuSans-Bold-73" x="671.484375"/>
     <use xlink:href="#DejaVuSans-Bold-69" x="731.005859"/>
     <use xlink:href="#DejaVuSans-Bold-67" x="765.283203"/>
     <use xlink:href="#DejaVuSans-Bold-6e" x="836.865234"/>
     <use xlink:href="#DejaVuSans-Bold-61" x="908.056641"/>
     <use xlink:href="#DejaVuSans-Bold-6c" x="975.537109"/>
     <use xlink:href="#DejaVuSans-Bold-73" x="1009.814453"/>
     <use xlink:href="#DejaVuSans-Bold-20" x="1069.335938"/>
     <use xlink:href="#DejaVuSans-Bold-b7" x="1104.150391"/>
     <use xlink:href="#DejaVuSans-Bold-20" x="1142.138672"/>
     <use xlink:href="#DejaVuSans-Bold-68" x="1176.953125"/>
     <use xlink:href="#DejaVuSans-Bold-79" x="1248.144531"/>
     <use xlink:href="#DejaVuSans-Bold-70" x="1313.330078"/>
     <use xlink:href="#DejaVuSans-Bold-6f" x="1384.912109"/>
     <use xlink:href="#DejaVuSans-Bold-74" x="1453.613281"/>
     <use xlink:href="#DejaVuSans-Bold-68" x="1501.416016"/>
     <use xlink:href="#DejaVuSans-Bold-65" x="1572.607422"/>
     <use xlink:href="#DejaVuSans-Bold-73" x="1640.429688"/>
     <use xlink:href="#DejaVuSans-Bold-69" x="1699.951172"/>
     <use xlink:href="#DejaVuSans-Bold-73" x="1734.228516"/>
     <use xlink:href="#DejaVuSans-Bold-65" x="1793.75"/>
     <use xlink:href="#DejaVuSans-Bold-64" x="1861.572266"/>
     <use xlink:href="#DejaVuSans-Bold-20" x="1933.154297"/>
     <use xlink:href="#DejaVuSans-Bold-63" x="1967.96875"/>
     <use xlink:href="#DejaVuSans-Bold-6f" x="2027.246094"/>
     <use xlink:href="#DejaVuSans-Bold-6f" x="2095.947266"/>
     <use xlink:href="#DejaVuSans-Bold-72" x="2164.648438"/>
     <use xlink:href="#DejaVuSans-Bold-64" x="2213.964844"/>
     <use xlink:href="#DejaVuSans-Bold-69" x="2285.546875"/>
     <use xlink:href="#DejaVuSans-Bold-6e" x="2319.824219"/>
     <use xlink:href="#DejaVuSans-Bold-61" x="2391.015625"/>
     <use xlink:href="#DejaVuSans-Bold-74" x="2458.496094"/>
     <use xlink:href="#DejaVuSans-Bold-65" x="2506.298828"/>
     <use xlink:href="#DejaVuSans-Bold-64" x="2574.121094"/>
     <use xlink:href="#DejaVuSans-Bold-20" x="2645.703125"/>
     <use xlink:href="#DejaVuSans-Bold-70" x="2680.517578"/>
     <use xlink:href="#DejaVuSans-Bold-61" x="2752.099609"/>
     <use xlink:href="#DejaVuSans-Bold-74" x="2819.580078"/>
     <use xlink:href="#DejaVuSans-Bold-74" x="2867.382812"/>
     <use xlink:href="#DejaVuSans-Bold-65" x="2915.185547"/>
     <use xlink:href="#DejaVuSans-Bold-72" x="2983.007812"/>
     <use xlink:href="#DejaVuSans-Bold-6e" x="3032.324219"/>
    </g>
   </g>
   <g id="text_12">
    <!-- Language-model perplexity -->
    <g style="fill: #2b2f38" transform="translate(151.719244 169.633758) scale(0.086 -0.086)">
     <defs>
      <path id="DejaVuSans-4c" d="M 628 4666 
L 1259 4666 
L 1259 531 
L 3531 531 
L 3531 0 
L 628 0 
L 628 4666 
z
" transform="scale(0.015625)"/>
      <path id="DejaVuSans-61" d="M 2194 1759 
Q 1497 1759 1228 1600 
Q 959 1441 959 1056 
Q 959 750 1161 570 
Q 1363 391 1709 391 
Q 2188 391 2477 730 
Q 2766 1069 2766 1631 
L 2766 1759 
L 2194 1759 
z
M 3341 1997 
L 3341 0 
L 2766 0 
L 2766 531 
Q 2569 213 2275 61 
Q 1981 -91 1556 -91 
Q 1019 -91 701 211 
Q 384 513 384 1019 
Q 384 1609 779 1909 
Q 1175 2209 1959 2209 
L 2766 2209 
L 2766 2266 
Q 2766 2663 2505 2880 
Q 2244 3097 1772 3097 
Q 1472 3097 1187 3025 
Q 903 2953 641 2809 
L 641 3341 
Q 956 3463 1253 3523 
Q 1550 3584 1831 3584 
Q 2591 3584 2966 3190 
Q 3341 2797 3341 1997 
z
" transform="scale(0.015625)"/>
      <path id="DejaVuSans-6e" d="M 3513 2113 
L 3513 0 
L 2938 0 
L 2938 2094 
Q 2938 2591 2744 2837 
Q 2550 3084 2163 3084 
Q 1697 3084 1428 2787 
Q 1159 2491 1159 1978 
L 1159 0 
L 581 0 
L 581 3500 
L 1159 3500 
L 1159 2956 
Q 1366 3272 1645 3428 
Q 1925 3584 2291 3584 
Q 2894 3584 3203 3211 
Q 3513 2838 3513 2113 
z
" transform="scale(0.015625)"/>
      <path id="DejaVuSans-67" d="M 2906 1791 
Q 2906 2416 2648 2759 
Q 2391 3103 1925 3103 
Q 1463 3103 1205 2759 
Q 947 2416 947 1791 
Q 947 1169 1205 825 
Q 1463 481 1925 481 
Q 2391 481 2648 825 
Q 2906 1169 2906 1791 
z
M 3481 434 
Q 3481 -459 3084 -895 
Q 2688 -1331 1869 -1331 
Q 1566 -1331 1297 -1286 
Q 1028 -1241 775 -1147 
L 775 -588 
Q 1028 -725 1275 -790 
Q 1522 -856 1778 -856 
Q 2344 -856 2625 -561 
Q 2906 -266 2906 331 
L 2906 616 
Q 2728 306 2450 153 
Q 2172 0 1784 0 
Q 1141 0 747 490 
Q 353 981 353 1791 
Q 353 2603 747 3093 
Q 1141 3584 1784 3584 
Q 2172 3584 2450 3431 
Q 2728 3278 2906 2969 
L 2906 3500 
L 3481 3500 
L 3481 434 
z
" transform="scale(0.015625)"/>
      <path id="DejaVuSans-75" d="M 544 1381 
L 544 3500 
L 1119 3500 
L 1119 1403 
Q 1119 906 1312 657 
Q 1506 409 1894 409 
Q 2359 409 2629 706 
Q 2900 1003 2900 1516 
L 2900 3500 
L 3475 3500 
L 3475 0 
L 2900 0 
L 2900 538 
Q 2691 219 2414 64 
Q 2138 -91 1772 -91 
Q 1169 -91 856 284 
Q 544 659 544 1381 
z
M 1991 3584 
L 1991 3584 
z
" transform="scale(0.015625)"/>
      <path id="DejaVuSans-65" d="M 3597 1894 
L 3597 1613 
L 953 1613 
Q 991 1019 1311 708 
Q 1631 397 2203 397 
Q 2534 397 2845 478 
Q 3156 559 3463 722 
L 3463 178 
Q 3153 47 2828 -22 
Q 2503 -91 2169 -91 
Q 1331 -91 842 396 
Q 353 884 353 1716 
Q 353 2575 817 3079 
Q 1281 3584 2069 3584 
Q 2775 3584 3186 3129 
Q 3597 2675 3597 1894 
z
M 3022 2063 
Q 3016 2534 2758 2815 
Q 2500 3097 2075 3097 
Q 1594 3097 1305 2825 
Q 1016 2553 972 2059 
L 3022 2063 
z
" transform="scale(0.015625)"/>
      <path id="DejaVuSans-2d" d="M 313 2009 
L 1997 2009 
L 1997 1497 
L 313 1497 
L 313 2009 
z
" transform="scale(0.015625)"/>
      <path id="DejaVuSans-6d" d="M 3328 2828 
Q 3544 3216 3844 3400 
Q 4144 3584 4550 3584 
Q 5097 3584 5394 3201 
Q 5691 2819 5691 2113 
L 5691 0 
L 5113 0 
L 5113 2094 
Q 5113 2597 4934 2840 
Q 4756 3084 4391 3084 
Q 3944 3084 3684 2787 
Q 3425 2491 3425 1978 
L 3425 0 
L 2847 0 
L 2847 2094 
Q 2847 2600 2669 2842 
Q 2491 3084 2119 3084 
Q 1678 3084 1418 2786 
Q 1159 2488 1159 1978 
L 1159 0 
L 581 0 
L 581 3500 
L 1159 3500 
L 1159 2956 
Q 1356 3278 1631 3431 
Q 1906 3584 2284 3584 
Q 2666 3584 2933 3390 
Q 3200 3197 3328 2828 
z
" transform="scale(0.015625)"/>
      <path id="DejaVuSans-6f" d="M 1959 3097 
Q 1497 3097 1228 2736 
Q 959 2375 959 1747 
Q 959 1119 1226 758 
Q 1494 397 1959 397 
Q 2419 397 2687 759 
Q 2956 1122 2956 1747 
Q 2956 2369 2687 2733 
Q 2419 3097 1959 3097 
z
M 1959 3584 
Q 2709 3584 3137 3096 
Q 3566 2609 3566 1747 
Q 3566 888 3137 398 
Q 2709 -91 1959 -91 
Q 1206 -91 779 398 
Q 353 888 353 1747 
Q 353 2609 779 3096 
Q 1206 3584 1959 3584 
z
" transform="scale(0.015625)"/>
      <path id="DejaVuSans-64" d="M 2906 2969 
L 2906 4863 
L 3481 4863 
L 3481 0 
L 2906 0 
L 2906 525 
Q 2725 213 2448 61 
Q 2172 -91 1784 -91 
Q 1150 -91 751 415 
Q 353 922 353 1747 
Q 353 2572 751 3078 
Q 1150 3584 1784 3584 
Q 2172 3584 2448 3432 
Q 2725 3281 2906 2969 
z
M 947 1747 
Q 947 1113 1208 752 
Q 1469 391 1925 391 
Q 2381 391 2643 752 
Q 2906 1113 2906 1747 
Q 2906 2381 2643 2742 
Q 2381 3103 1925 3103 
Q 1469 3103 1208 2742 
Q 947 2381 947 1747 
z
" transform="scale(0.015625)"/>
      <path id="DejaVuSans-6c" d="M 603 4863 
L 1178 4863 
L 1178 0 
L 603 0 
L 603 4863 
z
" transform="scale(0.015625)"/>
      <path id="DejaVuSans-20" transform="scale(0.015625)"/>
      <path id="DejaVuSans-70" d="M 1159 525 
L 1159 -1331 
L 581 -1331 
L 581 3500 
L 1159 3500 
L 1159 2969 
Q 1341 3281 1617 3432 
Q 1894 3584 2278 3584 
Q 2916 3584 3314 3078 
Q 3713 2572 3713 1747 
Q 3713 922 3314 415 
Q 2916 -91 2278 -91 
Q 1894 -91 1617 61 
Q 1341 213 1159 525 
z
M 3116 1747 
Q 3116 2381 2855 2742 
Q 2594 3103 2138 3103 
Q 1681 3103 1420 2742 
Q 1159 2381 1159 1747 
Q 1159 1113 1420 752 
Q 1681 391 2138 391 
Q 2594 391 2855 752 
Q 3116 1113 3116 1747 
z
" transform="scale(0.015625)"/>
      <path id="DejaVuSans-72" d="M 2631 2963 
Q 2534 3019 2420 3045 
Q 2306 3072 2169 3072 
Q 1681 3072 1420 2755 
Q 1159 2438 1159 1844 
L 1159 0 
L 581 0 
L 581 3500 
L 1159 3500 
L 1159 2956 
Q 1341 3275 1631 3429 
Q 1922 3584 2338 3584 
Q 2397 3584 2469 3576 
Q 2541 3569 2628 3553 
L 2631 2963 
z
" transform="scale(0.015625)"/>
      <path id="DejaVuSans-78" d="M 3513 3500 
L 2247 1797 
L 3578 0 
L 2900 0 
L 1881 1375 
L 863 0 
L 184 0 
L 1544 1831 
L 300 3500 
L 978 3500 
L 1906 2253 
L 2834 3500 
L 3513 3500 
z
" transform="scale(0.015625)"/>
      <path id="DejaVuSans-69" d="M 603 3500 
L 1178 3500 
L 1178 0 
L 603 0 
L 603 3500 
z
M 603 4863 
L 1178 4863 
L 1178 4134 
L 603 4134 
L 603 4863 
z
" transform="scale(0.015625)"/>
      <path id="DejaVuSans-74" d="M 1172 4494 
L 1172 3500 
L 2356 3500 
L 2356 3053 
L 1172 3053 
L 1172 1153 
Q 1172 725 1289 603 
Q 1406 481 1766 481 
L 2356 481 
L 2356 0 
L 1766 0 
Q 1100 0 847 248 
Q 594 497 594 1153 
L 594 3053 
L 172 3053 
L 172 3500 
L 594 3500 
L 594 4494 
L 1172 4494 
z
" transform="scale(0.015625)"/>
      <path id="DejaVuSans-79" d="M 2059 -325 
Q 1816 -950 1584 -1140 
Q 1353 -1331 966 -1331 
L 506 -1331 
L 506 -850 
L 844 -850 
Q 1081 -850 1212 -737 
Q 1344 -625 1503 -206 
L 1606 56 
L 191 3500 
L 800 3500 
L 1894 763 
L 2988 3500 
L 3597 3500 
L 2059 -325 
z
" transform="scale(0.015625)"/>
     </defs>
     <use xlink:href="#DejaVuSans-4c"/>
     <use xlink:href="#DejaVuSans-61" x="55.712891"/>
     <use xlink:href="#DejaVuSans-6e" x="116.992188"/>
     <use xlink:href="#DejaVuSans-67" x="180.371094"/>
     <use xlink:href="#DejaVuSans-75" x="243.847656"/>
     <use xlink:href="#DejaVuSans-61" x="307.226562"/>
     <use xlink:href="#DejaVuSans-67" x="368.505859"/>
     <use xlink:href="#DejaVuSans-65" x="431.982422"/>
     <use xlink:href="#DejaVuSans-2d" x="493.505859"/>
     <use xlink:href="#DejaVuSans-6d" x="529.589844"/>
     <use xlink:href="#DejaVuSans-6f" x="627.001953"/>
     <use xlink:href="#DejaVuSans-64" x="688.183594"/>
     <use xlink:href="#DejaVuSans-65" x="751.660156"/>
     <use xlink:href="#DejaVuSans-6c" x="813.183594"/>
     <use xlink:href="#DejaVuSans-20" x="840.966797"/>
     <use xlink:href="#DejaVuSans-70" x="872.753906"/>
     <use xlink:href="#DejaVuSans-65" x="936.230469"/>
     <use xlink:href="#DejaVuSans-72" x="997.753906"/>
     <use xlink:href="#DejaVuSans-70" x="1038.867188"/>
     <use xlink:href="#DejaVuSans-6c" x="1102.34375"/>
     <use xlink:href="#DejaVuSans-65" x="1130.126953"/>
     <use xlink:href="#DejaVuSans-78" x="1189.900391"/>
     <use xlink:href="#DejaVuSans-69" x="1249.080078"/>
     <use xlink:href="#DejaVuSans-74" x="1276.863281"/>
     <use xlink:href="#DejaVuSans-79" x="1316.072266"/>
    </g>
   </g>
   <g id="text_13">
    <!-- ▼ lower -->
    <g style="fill: #6a4fa3" transform="translate(423.383559 169.633758) scale(0.086 -0.086)">
     <defs>
      <path id="DejaVuSans-Bold-25bc" d="M 19 4113 
L 4903 4113 
L 2459 -788 
L 19 4113 
z
" transform="scale(0.015625)"/>
     </defs>
     <use xlink:href="#DejaVuSans-Bold-25bc"/>
     <use xlink:href="#DejaVuSans-Bold-20" x="76.904297"/>
     <use xlink:href="#DejaVuSans-Bold-6c" x="111.71875"/>
     <use xlink:href="#DejaVuSans-Bold-6f" x="145.996094"/>
     <use xlink:href="#DejaVuSans-Bold-77" x="214.697266"/>
     <use xlink:href="#DejaVuSans-Bold-65" x="307.080078"/>
     <use xlink:href="#DejaVuSans-Bold-72" x="374.902344"/>
    </g>
   </g>
   <g id="text_14">
    <!-- Sentence-length burstiness -->
    <g style="fill: #2b2f38" transform="translate(151.719244 186.718889) scale(0.086 -0.086)">
     <defs>
      <path id="DejaVuSans-53" d="M 3425 4513 
L 3425 3897 
Q 3066 4069 2747 4153 
Q 2428 4238 2131 4238 
Q 1616 4238 1336 4038 
Q 1056 3838 1056 3469 
Q 1056 3159 1242 3001 
Q 1428 2844 1947 2747 
L 2328 2669 
Q 3034 2534 3370 2195 
Q 3706 1856 3706 1288 
Q 3706 609 3251 259 
Q 2797 -91 1919 -91 
Q 1588 -91 1214 -16 
Q 841 59 441 206 
L 441 856 
Q 825 641 1194 531 
Q 1563 422 1919 422 
Q 2459 422 2753 634 
Q 3047 847 3047 1241 
Q 3047 1584 2836 1778 
Q 2625 1972 2144 2069 
L 1759 2144 
Q 1053 2284 737 2584 
Q 422 2884 422 3419 
Q 422 4038 858 4394 
Q 1294 4750 2059 4750 
Q 2388 4750 2728 4690 
Q 3069 4631 3425 4513 
z
" transform="scale(0.015625)"/>
      <path id="DejaVuSans-63" d="M 3122 3366 
L 3122 2828 
Q 2878 2963 2633 3030 
Q 2388 3097 2138 3097 
Q 1578 3097 1268 2742 
Q 959 2388 959 1747 
Q 959 1106 1268 751 
Q 1578 397 2138 397 
Q 2388 397 2633 464 
Q 2878 531 3122 666 
L 3122 134 
Q 2881 22 2623 -34 
Q 2366 -91 2075 -91 
Q 1284 -91 818 406 
Q 353 903 353 1747 
Q 353 2603 823 3093 
Q 1294 3584 2113 3584 
Q 2378 3584 2631 3529 
Q 2884 3475 3122 3366 
z
" transform="scale(0.015625)"/>
      <path id="DejaVuSans-68" d="M 3513 2113 
L 3513 0 
L 2938 0 
L 2938 2094 
Q 2938 2591 2744 2837 
Q 2550 3084 2163 3084 
Q 1697 3084 1428 2787 
Q 1159 2491 1159 1978 
L 1159 0 
L 581 0 
L 581 4863 
L 1159 4863 
L 1159 2956 
Q 1366 3272 1645 3428 
Q 1925 3584 2291 3584 
Q 2894 3584 3203 3211 
Q 3513 2838 3513 2113 
z
" transform="scale(0.015625)"/>
      <path id="DejaVuSans-62" d="M 3116 1747 
Q 3116 2381 2855 2742 
Q 2594 3103 2138 3103 
Q 1681 3103 1420 2742 
Q 1159 2381 1159 1747 
Q 1159 1113 1420 752 
Q 1681 391 2138 391 
Q 2594 391 2855 752 
Q 3116 1113 3116 1747 
z
M 1159 2969 
Q 1341 3281 1617 3432 
Q 1894 3584 2278 3584 
Q 2916 3584 3314 3078 
Q 3713 2572 3713 1747 
Q 3713 922 3314 415 
Q 2916 -91 2278 -91 
Q 1894 -91 1617 61 
Q 1341 213 1159 525 
L 1159 0 
L 581 0 
L 581 4863 
L 1159 4863 
L 1159 2969 
z
" transform="scale(0.015625)"/>
      <path id="DejaVuSans-73" d="M 2834 3397 
L 2834 2853 
Q 2591 2978 2328 3040 
Q 2066 3103 1784 3103 
Q 1356 3103 1142 2972 
Q 928 2841 928 2578 
Q 928 2378 1081 2264 
Q 1234 2150 1697 2047 
L 1894 2003 
Q 2506 1872 2764 1633 
Q 3022 1394 3022 966 
Q 3022 478 2636 193 
Q 2250 -91 1575 -91 
Q 1294 -91 989 -36 
Q 684 19 347 128 
L 347 722 
Q 666 556 975 473 
Q 1284 391 1588 391 
Q 1994 391 2212 530 
Q 2431 669 2431 922 
Q 2431 1156 2273 1281 
Q 2116 1406 1581 1522 
L 1381 1569 
Q 847 1681 609 1914 
Q 372 2147 372 2553 
Q 372 3047 722 3315 
Q 1072 3584 1716 3584 
Q 2034 3584 2315 3537 
Q 2597 3491 2834 3397 
z
" transform="scale(0.015625)"/>
     </defs>
     <use xlink:href="#DejaVuSans-53"/>
     <use xlink:href="#DejaVuSans-65" x="63.476562"/>
     <use xlink:href="#DejaVuSans-6e" x="125"/>
     <use xlink:href="#DejaVuSans-74" x="188.378906"/>
     <use xlink:href="#DejaVuSans-65" x="227.587891"/>
     <use xlink:href="#DejaVuSans-6e" x="289.111328"/>
     <use xlink:href="#DejaVuSans-63" x="352.490234"/>
     <use xlink:href="#DejaVuSans-65" x="407.470703"/>
     <use xlink:href="#DejaVuSans-2d" x="468.994141"/>
     <use xlink:href="#DejaVuSans-6c" x="505.078125"/>
     <use xlink:href="#DejaVuSans-65" x="532.861328"/>
     <use xlink:href="#DejaVuSans-6e" x="594.384766"/>
     <use xlink:href="#DejaVuSans-67" x="657.763672"/>
     <use xlink:href="#DejaVuSans-74" x="721.240234"/>
     <use xlink:href="#DejaVuSans-68" x="760.449219"/>
     <use xlink:href="#DejaVuSans-20" x="823.828125"/>
     <use xlink:href="#DejaVuSans-62" x="855.615234"/>
     <use xlink:href="#DejaVuSans-75" x="919.091797"/>
     <use xlink:href="#DejaVuSans-72" x="982.470703"/>
     <use xlink:href="#DejaVuSans-73" x="1023.583984"/>
     <use xlink:href="#DejaVuSans-74" x="1075.683594"/>
     <use xlink:href="#DejaVuSans-69" x="1114.892578"/>
     <use xlink:href="#DejaVuSans-6e" x="1142.675781"/>
     <use xlink:href="#DejaVuSans-65" x="1206.054688"/>
     <use xlink:href="#DejaVuSans-73" x="1267.578125"/>
     <use xlink:href="#DejaVuSans-73" x="1319.677734"/>
    </g>
   </g>
   <g id="text_15">
    <!-- ▼ lower -->
    <g style="fill: #6a4fa3" transform="translate(423.383559 186.718889) scale(0.086 -0.086)">
     <use xlink:href="#DejaVuSans-Bold-25bc"/>
     <use xlink:href="#DejaVuSans-Bold-20" x="76.904297"/>
     <use xlink:href="#DejaVuSans-Bold-6c" x="111.71875"/>
     <use xlink:href="#DejaVuSans-Bold-6f" x="145.996094"/>
     <use xlink:href="#DejaVuSans-Bold-77" x="214.697266"/>
     <use xlink:href="#DejaVuSans-Bold-65" x="307.080078"/>
     <use xlink:href="#DejaVuSans-Bold-72" x="374.902344"/>
    </g>
   </g>
   <g id="text_16">
    <!-- Commercial-policy framing density -->
    <g style="fill: #2b2f38" transform="translate(151.719244 203.804019) scale(0.086 -0.086)">
     <defs>
      <path id="DejaVuSans-43" d="M 4122 4306 
L 4122 3641 
Q 3803 3938 3442 4084 
Q 3081 4231 2675 4231 
Q 1875 4231 1450 3742 
Q 1025 3253 1025 2328 
Q 1025 1406 1450 917 
Q 1875 428 2675 428 
Q 3081 428 3442 575 
Q 3803 722 4122 1019 
L 4122 359 
Q 3791 134 3420 21 
Q 3050 -91 2638 -91 
Q 1578 -91 968 557 
Q 359 1206 359 2328 
Q 359 3453 968 4101 
Q 1578 4750 2638 4750 
Q 3056 4750 3426 4639 
Q 3797 4528 4122 4306 
z
" transform="scale(0.015625)"/>
      <path id="DejaVuSans-66" d="M 2375 4863 
L 2375 4384 
L 1825 4384 
Q 1516 4384 1395 4259 
Q 1275 4134 1275 3809 
L 1275 3500 
L 2222 3500 
L 2222 3053 
L 1275 3053 
L 1275 0 
L 697 0 
L 697 3053 
L 147 3053 
L 147 3500 
L 697 3500 
L 697 3744 
Q 697 4328 969 4595 
Q 1241 4863 1831 4863 
L 2375 4863 
z
" transform="scale(0.015625)"/>
     </defs>
     <use xlink:href="#DejaVuSans-43"/>
     <use xlink:href="#DejaVuSans-6f" x="69.824219"/>
     <use xlink:href="#DejaVuSans-6d" x="131.005859"/>
     <use xlink:href="#DejaVuSans-6d" x="228.417969"/>
     <use xlink:href="#DejaVuSans-65" x="325.830078"/>
     <use xlink:href="#DejaVuSans-72" x="387.353516"/>
     <use xlink:href="#DejaVuSans-63" x="426.216797"/>
     <use xlink:href="#DejaVuSans-69" x="481.197266"/>
     <use xlink:href="#DejaVuSans-61" x="508.980469"/>
     <use xlink:href="#DejaVuSans-6c" x="570.259766"/>
     <use xlink:href="#DejaVuSans-2d" x="598.042969"/>
     <use xlink:href="#DejaVuSans-70" x="634.126953"/>
     <use xlink:href="#DejaVuSans-6f" x="697.603516"/>
     <use xlink:href="#DejaVuSans-6c" x="758.785156"/>
     <use xlink:href="#DejaVuSans-69" x="786.568359"/>
     <use xlink:href="#DejaVuSans-63" x="814.351562"/>
     <use xlink:href="#DejaVuSans-79" x="869.332031"/>
     <use xlink:href="#DejaVuSans-20" x="928.511719"/>
     <use xlink:href="#DejaVuSans-66" x="960.298828"/>
     <use xlink:href="#DejaVuSans-72" x="995.503906"/>
     <use xlink:href="#DejaVuSans-61" x="1036.617188"/>
     <use xlink:href="#DejaVuSans-6d" x="1097.896484"/>
     <use xlink:href="#DejaVuSans-69" x="1195.308594"/>
     <use xlink:href="#DejaVuSans-6e" x="1223.091797"/>
     <use xlink:href="#DejaVuSans-67" x="1286.470703"/>
     <use xlink:href="#DejaVuSans-20" x="1349.947266"/>
     <use xlink:href="#DejaVuSans-64" x="1381.734375"/>
     <use xlink:href="#DejaVuSans-65" x="1445.210938"/>
     <use xlink:href="#DejaVuSans-6e" x="1506.734375"/>
     <use xlink:href="#DejaVuSans-73" x="1570.113281"/>
     <use xlink:href="#DejaVuSans-69" x="1622.212891"/>
     <use xlink:href="#DejaVuSans-74" x="1649.996094"/>
     <use xlink:href="#DejaVuSans-79" x="1689.205078"/>
    </g>
   </g>
   <g id="text_17">
    <!-- ▲ higher -->
    <g style="fill: #6a4fa3" transform="translate(418.837653 203.770425) scale(0.086 -0.086)">
     <defs>
      <path id="DejaVuSans-Bold-25b2" d="M 19 -788 
L 2459 4113 
L 4903 -788 
L 19 -788 
z
" transform="scale(0.015625)"/>
     </defs>
     <use xlink:href="#DejaVuSans-Bold-25b2"/>
     <use xlink:href="#DejaVuSans-Bold-20" x="76.904297"/>
     <use xlink:href="#DejaVuSans-Bold-68" x="111.71875"/>
     <use xlink:href="#DejaVuSans-Bold-69" x="182.910156"/>
     <use xlink:href="#DejaVuSans-Bold-67" x="217.1875"/>
     <use xlink:href="#DejaVuSans-Bold-68" x="288.769531"/>
     <use xlink:href="#DejaVuSans-Bold-65" x="359.960938"/>
     <use xlink:href="#DejaVuSans-Bold-72" x="427.783203"/>
    </g>
   </g>
   <g id="text_18">
    <!-- Semantic convergence -->
    <g style="fill: #2b2f38" transform="translate(151.719244 220.889149) scale(0.086 -0.086)">
     <defs>
      <path id="DejaVuSans-76" d="M 191 3500 
L 800 3500 
L 1894 563 
L 2988 3500 
L 3597 3500 
L 2284 0 
L 1503 0 
L 191 3500 
z
" transform="scale(0.015625)"/>
     </defs>
     <use xlink:href="#DejaVuSans-53"/>
     <use xlink:href="#DejaVuSans-65" x="63.476562"/>
     <use xlink:href="#DejaVuSans-6d" x="125"/>
     <use xlink:href="#DejaVuSans-61" x="222.412109"/>
     <use xlink:href="#DejaVuSans-6e" x="283.691406"/>
     <use xlink:href="#DejaVuSans-74" x="347.070312"/>
     <use xlink:href="#DejaVuSans-69" x="386.279297"/>
     <use xlink:href="#DejaVuSans-63" x="414.0625"/>
     <use xlink:href="#DejaVuSans-20" x="469.042969"/>
     <use xlink:href="#DejaVuSans-63" x="500.830078"/>
     <use xlink:href="#DejaVuSans-6f" x="555.810547"/>
     <use xlink:href="#DejaVuSans-6e" x="616.992188"/>
     <use xlink:href="#DejaVuSans-76" x="680.371094"/>
     <use xlink:href="#DejaVuSans-65" x="739.550781"/>
     <use xlink:href="#DejaVuSans-72" x="801.074219"/>
     <use xlink:href="#DejaVuSans-67" x="840.4375"/>
     <use xlink:href="#DejaVuSans-65" x="903.914062"/>
     <use xlink:href="#DejaVuSans-6e" x="965.4375"/>
     <use xlink:href="#DejaVuSans-63" x="1028.816406"/>
     <use xlink:href="#DejaVuSans-65" x="1083.796875"/>
    </g>
   </g>
   <g id="text_19">
    <!-- ▲ higher -->
    <g style="fill: #6a4fa3" transform="translate(418.837653 220.855556) scale(0.086 -0.086)">
     <use xlink:href="#DejaVuSans-Bold-25b2"/>
     <use xlink:href="#DejaVuSans-Bold-20" x="76.904297"/>
     <use xlink:href="#DejaVuSans-Bold-68" x="111.71875"/>
     <use xlink:href="#DejaVuSans-Bold-69" x="182.910156"/>
     <use xlink:href="#DejaVuSans-Bold-67" x="217.1875"/>
     <use xlink:href="#DejaVuSans-Bold-68" x="288.769531"/>
     <use xlink:href="#DejaVuSans-Bold-65" x="359.960938"/>
     <use xlink:href="#DejaVuSans-Bold-72" x="427.783203"/>
    </g>
   </g>
   <g id="text_20">
    <!-- Stance variability — exploratory only, not in composite -->
    <g style="fill: #6b7280" transform="translate(151.719244 237.97428) scale(0.086 -0.086)">
     <defs>
      <path id="DejaVuSans-Oblique-53" d="M 3859 4513 
L 3738 3897 
Q 3422 4066 3111 4152 
Q 2800 4238 2509 4238 
Q 1944 4238 1609 3991 
Q 1275 3744 1275 3334 
Q 1275 3109 1398 2989 
Q 1522 2869 2034 2731 
L 2413 2638 
Q 3053 2472 3303 2217 
Q 3553 1963 3553 1503 
Q 3553 797 2998 353 
Q 2444 -91 1538 -91 
Q 1166 -91 791 -17 
Q 416 56 38 206 
L 166 856 
Q 513 641 861 531 
Q 1209 422 1556 422 
Q 2147 422 2503 684 
Q 2859 947 2859 1369 
Q 2859 1650 2717 1795 
Q 2575 1941 2106 2059 
L 1728 2156 
Q 1081 2325 845 2545 
Q 609 2766 609 3163 
Q 609 3859 1145 4304 
Q 1681 4750 2541 4750 
Q 2875 4750 3203 4690 
Q 3531 4631 3859 4513 
z
" transform="scale(0.015625)"/>
      <path id="DejaVuSans-Oblique-2014" d="M 356 1978 
L 6131 1978 
L 6044 1528 
L 269 1528 
L 356 1978 
z
" transform="scale(0.015625)"/>
      <path id="DejaVuSans-Oblique-2c" d="M 575 794 
L 1234 794 
L 1131 256 
L 422 -744 
L 19 -744 
L 469 256 
L 575 794 
z
" transform="scale(0.015625)"/>
     </defs>
     <use xlink:href="#DejaVuSans-Oblique-53"/>
     <use xlink:href="#DejaVuSans-Oblique-74" x="63.476562"/>
     <use xlink:href="#DejaVuSans-Oblique-61" x="102.685547"/>
     <use xlink:href="#DejaVuSans-Oblique-6e" x="163.964844"/>
     <use xlink:href="#DejaVuSans-Oblique-63" x="227.34375"/>
     <use xlink:href="#DejaVuSans-Oblique-65" x="282.324219"/>
     <use xlink:href="#DejaVuSans-Oblique-20" x="343.847656"/>
     <use xlink:href="#DejaVuSans-Oblique-76" x="375.634766"/>
     <use xlink:href="#DejaVuSans-Oblique-61" x="434.814453"/>
     <use xlink:href="#DejaVuSans-Oblique-72" x="496.09375"/>
     <use xlink:href="#DejaVuSans-Oblique-69" x="537.207031"/>
     <use xlink:href="#DejaVuSans-Oblique-61" x="564.990234"/>
     <use xlink:href="#DejaVuSans-Oblique-62" x="626.269531"/>
     <use xlink:href="#DejaVuSans-Oblique-69" x="689.746094"/>
     <use xlink:href="#DejaVuSans-Oblique-6c" x="717.529297"/>
     <use xlink:href="#DejaVuSans-Oblique-69" x="745.3125"/>
     <use xlink:href="#DejaVuSans-Oblique-74" x="773.095703"/>
     <use xlink:href="#DejaVuSans-Oblique-79" x="812.304688"/>
     <use xlink:href="#DejaVuSans-Oblique-20" x="871.484375"/>
     <use xlink:href="#DejaVuSans-Oblique-2014" x="903.271484"/>
     <use xlink:href="#DejaVuSans-Oblique-20" x="1003.271484"/>
     <use xlink:href="#DejaVuSans-Oblique-65" x="1035.058594"/>
     <use xlink:href="#DejaVuSans-Oblique-78" x="1096.582031"/>
     <use xlink:href="#DejaVuSans-Oblique-70" x="1155.761719"/>
     <use xlink:href="#DejaVuSans-Oblique-6c" x="1219.238281"/>
     <use xlink:href="#DejaVuSans-Oblique-6f" x="1247.021484"/>
     <use xlink:href="#DejaVuSans-Oblique-72" x="1308.203125"/>
     <use xlink:href="#DejaVuSans-Oblique-61" x="1349.316406"/>
     <use xlink:href="#DejaVuSans-Oblique-74" x="1410.595703"/>
     <use xlink:href="#DejaVuSans-Oblique-6f" x="1449.804688"/>
     <use xlink:href="#DejaVuSans-Oblique-72" x="1510.986328"/>
     <use xlink:href="#DejaVuSans-Oblique-79" x="1552.099609"/>
     <use xlink:href="#DejaVuSans-Oblique-20" x="1611.279297"/>
     <use xlink:href="#DejaVuSans-Oblique-6f" x="1643.066406"/>
     <use xlink:href="#DejaVuSans-Oblique-6e" x="1704.248047"/>
     <use xlink:href="#DejaVuSans-Oblique-6c" x="1767.626953"/>
     <use xlink:href="#DejaVuSans-Oblique-79" x="1795.410156"/>
     <use xlink:href="#DejaVuSans-Oblique-2c" x="1846.839844"/>
     <use xlink:href="#DejaVuSans-Oblique-20" x="1878.626953"/>
     <use xlink:href="#DejaVuSans-Oblique-6e" x="1910.414062"/>
     <use xlink:href="#DejaVuSans-Oblique-6f" x="1973.792969"/>
     <use xlink:href="#DejaVuSans-Oblique-74" x="2034.974609"/>
     <use xlink:href="#DejaVuSans-Oblique-20" x="2074.183594"/>
     <use xlink:href="#DejaVuSans-Oblique-69" x="2105.970703"/>
     <use xlink:href="#DejaVuSans-Oblique-6e" x="2133.753906"/>
     <use xlink:href="#DejaVuSans-Oblique-20" x="2197.132812"/>
     <use xlink:href="#DejaVuSans-Oblique-63" x="2228.919922"/>
     <use xlink:href="#DejaVuSans-Oblique-6f" x="2283.900391"/>
     <use xlink:href="#DejaVuSans-Oblique-6d" x="2345.082031"/>
     <use xlink:href="#DejaVuSans-Oblique-70" x="2442.494141"/>
     <use xlink:href="#DejaVuSans-Oblique-6f" x="2505.970703"/>
     <use xlink:href="#DejaVuSans-Oblique-73" x="2567.152344"/>
     <use xlink:href="#DejaVuSans-Oblique-69" x="2619.251953"/>
     <use xlink:href="#DejaVuSans-Oblique-74" x="2647.035156"/>
     <use xlink:href="#DejaVuSans-Oblique-65" x="2686.244141"/>
    </g>
   </g>
   <g id="text_21">
    <!-- (at chance) -->
    <g style="fill: #6b7280" transform="translate(410.862497 237.97428) scale(0.086 -0.086)">
     <defs>
      <path id="DejaVuSans-Oblique-28" d="M 2731 4856 
Q 1903 3822 1495 2892 
Q 1088 1963 1088 1100 
Q 1088 606 1206 120 
Q 1325 -366 1563 -844 
L 1063 -844 
Q 775 -306 634 201 
Q 494 709 494 1197 
Q 494 2125 923 3036 
Q 1353 3947 2222 4856 
L 2731 4856 
z
" transform="scale(0.015625)"/>
      <path id="DejaVuSans-Oblique-29" d="M -397 -844 
Q 434 191 840 1120 
Q 1247 2050 1247 2913 
Q 1247 3406 1130 3892 
Q 1013 4378 775 4856 
L 1275 4856 
Q 1563 4316 1703 3812 
Q 1844 3309 1844 2822 
Q 1844 1891 1411 973 
Q 978 56 116 -844 
L -397 -844 
z
" transform="scale(0.015625)"/>
     </defs>
     <use xlink:href="#DejaVuSans-Oblique-28"/>
     <use xlink:href="#DejaVuSans-Oblique-61" x="39.013672"/>
     <use xlink:href="#DejaVuSans-Oblique-74" x="100.292969"/>
     <use xlink:href="#DejaVuSans-Oblique-20" x="139.501953"/>
     <use xlink:href="#DejaVuSans-Oblique-63" x="171.289062"/>
     <use xlink:href="#DejaVuSans-Oblique-68" x="226.269531"/>
     <use xlink:href="#DejaVuSans-Oblique-61" x="289.648438"/>
     <use xlink:href="#DejaVuSans-Oblique-6e" x="350.927734"/>
     <use xlink:href="#DejaVuSans-Oblique-63" x="414.306641"/>
     <use xlink:href="#DejaVuSans-Oblique-65" x="469.287109"/>
     <use xlink:href="#DejaVuSans-Oblique-29" x="530.810547"/>
    </g>
   </g>
   <g id="text_22">
    <!-- CCSF is a data-minimising, account-level triage aid — not an individual-level detector. -->
    <g style="fill: #2b2f38" transform="translate(114.159097 273.426279) scale(0.089 -0.089)">
     <defs>
      <path id="DejaVuSans-Oblique-43" d="M 4447 4306 
L 4319 3641 
Q 4019 3944 3683 4091 
Q 3347 4238 2956 4238 
Q 2422 4238 2017 3981 
Q 1613 3725 1319 3200 
Q 1131 2863 1032 2486 
Q 934 2109 934 1728 
Q 934 1091 1264 756 
Q 1594 422 2222 422 
Q 2656 422 3056 561 
Q 3456 700 3834 978 
L 3688 231 
Q 3316 72 2936 -9 
Q 2556 -91 2175 -91 
Q 1278 -91 773 396 
Q 269 884 269 1753 
Q 269 2309 461 2846 
Q 653 3384 1013 3828 
Q 1394 4300 1883 4525 
Q 2372 4750 3022 4750 
Q 3422 4750 3780 4639 
Q 4138 4528 4447 4306 
z
" transform="scale(0.015625)"/>
      <path id="DejaVuSans-Oblique-46" d="M 1081 4666 
L 3756 4666 
L 3653 4134 
L 1606 4134 
L 1338 2759 
L 3188 2759 
L 3084 2228 
L 1234 2228 
L 800 0 
L 172 0 
L 1081 4666 
z
" transform="scale(0.015625)"/>
      <path id="DejaVuSans-Oblique-2e" d="M 525 794 
L 1184 794 
L 1031 0 
L 372 0 
L 525 794 
z
" transform="scale(0.015625)"/>
     </defs>
     <use xlink:href="#DejaVuSans-Oblique-43"/>
     <use xlink:href="#DejaVuSans-Oblique-43" x="69.824219"/>
     <use xlink:href="#DejaVuSans-Oblique-53" x="141.523438"/>
     <use xlink:href="#DejaVuSans-Oblique-46" x="205"/>
     <use xlink:href="#DejaVuSans-Oblique-20" x="262.519531"/>
     <use xlink:href="#DejaVuSans-Oblique-69" x="294.306641"/>
     <use xlink:href="#DejaVuSans-Oblique-73" x="322.089844"/>
     <use xlink:href="#DejaVuSans-Oblique-20" x="374.189453"/>
     <use xlink:href="#DejaVuSans-Oblique-61" x="405.976562"/>
     <use xlink:href="#DejaVuSans-Oblique-20" x="467.255859"/>
     <use xlink:href="#DejaVuSans-Oblique-64" x="499.042969"/>
     <use xlink:href="#DejaVuSans-Oblique-61" x="562.519531"/>
     <use xlink:href="#DejaVuSans-Oblique-74" x="623.798828"/>
     <use xlink:href="#DejaVuSans-Oblique-61" x="663.007812"/>
     <use xlink:href="#DejaVuSans-Oblique-2d" x="724.287109"/>
     <use xlink:href="#DejaVuSans-Oblique-6d" x="760.371094"/>
     <use xlink:href="#DejaVuSans-Oblique-69" x="857.783203"/>
     <use xlink:href="#DejaVuSans-Oblique-6e" x="885.566406"/>
     <use xlink:href="#DejaVuSans-Oblique-69" x="948.945312"/>
     <use xlink:href="#DejaVuSans-Oblique-6d" x="976.728516"/>
     <use xlink:href="#DejaVuSans-Oblique-69" x="1074.140625"/>
     <use xlink:href="#DejaVuSans-Oblique-73" x="1101.923828"/>
     <use xlink:href="#DejaVuSans-Oblique-69" x="1154.023438"/>
     <use xlink:href="#DejaVuSans-Oblique-6e" x="1181.806641"/>
     <use xlink:href="#DejaVuSans-Oblique-67" x="1245.185547"/>
     <use xlink:href="#DejaVuSans-Oblique-2c" x="1308.662109"/>
     <use xlink:href="#DejaVuSans-Oblique-20" x="1340.449219"/>
     <use xlink:href="#DejaVuSans-Oblique-61" x="1372.236328"/>
     <use xlink:href="#DejaVuSans-Oblique-63" x="1433.515625"/>
     <use xlink:href="#DejaVuSans-Oblique-63" x="1488.496094"/>
     <use xlink:href="#DejaVuSans-Oblique-6f" x="1543.476562"/>
     <use xlink:href="#DejaVuSans-Oblique-75" x="1604.658203"/>
     <use xlink:href="#DejaVuSans-Oblique-6e" x="1668.037109"/>
     <use xlink:href="#DejaVuSans-Oblique-74" x="1731.416016"/>
     <use xlink:href="#DejaVuSans-Oblique-2d" x="1770.625"/>
     <use xlink:href="#DejaVuSans-Oblique-6c" x="1806.708984"/>
     <use xlink:href="#DejaVuSans-Oblique-65" x="1834.492188"/>
     <use xlink:href="#DejaVuSans-Oblique-76" x="1896.015625"/>
     <use xlink:href="#DejaVuSans-Oblique-65" x="1955.195312"/>
     <use xlink:href="#DejaVuSans-Oblique-6c" x="2016.71875"/>
     <use xlink:href="#DejaVuSans-Oblique-20" x="2044.501953"/>
     <use xlink:href="#DejaVuSans-Oblique-74" x="2076.289062"/>
     <use xlink:href="#DejaVuSans-Oblique-72" x="2115.498047"/>
     <use xlink:href="#DejaVuSans-Oblique-69" x="2156.611328"/>
     <use xlink:href="#DejaVuSans-Oblique-61" x="2184.394531"/>
     <use xlink:href="#DejaVuSans-Oblique-67" x="2245.673828"/>
     <use xlink:href="#DejaVuSans-Oblique-65" x="2309.150391"/>
     <use xlink:href="#DejaVuSans-Oblique-20" x="2370.673828"/>
     <use xlink:href="#DejaVuSans-Oblique-61" x="2402.460938"/>
     <use xlink:href="#DejaVuSans-Oblique-69" x="2463.740234"/>
     <use xlink:href="#DejaVuSans-Oblique-64" x="2491.523438"/>
     <use xlink:href="#DejaVuSans-Oblique-20" x="2555"/>
     <use xlink:href="#DejaVuSans-Oblique-2014" x="2586.787109"/>
     <use xlink:href="#DejaVuSans-Oblique-20" x="2686.787109"/>
     <use xlink:href="#DejaVuSans-Oblique-6e" x="2718.574219"/>
     <use xlink:href="#DejaVuSans-Oblique-6f" x="2781.953125"/>
     <use xlink:href="#DejaVuSans-Oblique-74" x="2843.134766"/>
     <use xlink:href="#DejaVuSans-Oblique-20" x="2882.34375"/>
     <use xlink:href="#DejaVuSans-Oblique-61" x="2914.130859"/>
     <use xlink:href="#DejaVuSans-Oblique-6e" x="2975.410156"/>
     <use xlink:href="#DejaVuSans-Oblique-20" x="3038.789062"/>
     <use xlink:href="#DejaVuSans-Oblique-69" x="3070.576172"/>
     <use xlink:href="#DejaVuSans-Oblique-6e" x="3098.359375"/>
     <use xlink:href="#DejaVuSans-Oblique-64" x="3161.738281"/>
     <use xlink:href="#DejaVuSans-Oblique-69" x="3225.214844"/>
     <use xlink:href="#DejaVuSans-Oblique-76" x="3252.998047"/>
     <use xlink:href="#DejaVuSans-Oblique-69" x="3312.177734"/>
     <use xlink:href="#DejaVuSans-Oblique-64" x="3339.960938"/>
     <use xlink:href="#DejaVuSans-Oblique-75" x="3403.4375"/>
     <use xlink:href="#DejaVuSans-Oblique-61" x="3466.816406"/>
     <use xlink:href="#DejaVuSans-Oblique-6c" x="3528.095703"/>
     <use xlink:href="#DejaVuSans-Oblique-2d" x="3555.878906"/>
     <use xlink:href="#DejaVuSans-Oblique-6c" x="3591.962891"/>
     <use xlink:href="#DejaVuSans-Oblique-65" x="3619.746094"/>
     <use xlink:href="#DejaVuSans-Oblique-76" x="3681.269531"/>
     <use xlink:href="#DejaVuSans-Oblique-65" x="3740.449219"/>
     <use xlink:href="#DejaVuSans-Oblique-6c" x="3801.972656"/>
     <use xlink:href="#DejaVuSans-Oblique-20" x="3829.755859"/>
     <use xlink:href="#DejaVuSans-Oblique-64" x="3861.542969"/>
     <use xlink:href="#DejaVuSans-Oblique-65" x="3925.019531"/>
     <use xlink:href="#DejaVuSans-Oblique-74" x="3986.542969"/>
     <use xlink:href="#DejaVuSans-Oblique-65" x="4025.751953"/>
     <use xlink:href="#DejaVuSans-Oblique-63" x="4087.275391"/>
     <use xlink:href="#DejaVuSans-Oblique-74" x="4142.255859"/>
     <use xlink:href="#DejaVuSans-Oblique-6f" x="4181.464844"/>
     <use xlink:href="#DejaVuSans-Oblique-72" x="4242.646484"/>
     <use xlink:href="#DejaVuSans-Oblique-2e" x="4274.634766"/>
    </g>
   </g>
  </g>
 </g>
 <defs>
  <clipPath id="pecc7f15502">
   <rect x="7.2" y="7.2" width="597.18696" height="275.76"/>
  </clipPath>
 </defs>
</svg>
